<svg xmlns="http://www.w3.org/2000/svg" fill="none" viewBox="0 0 106 109" height="109" width="106">
<g clip-path="url(#clip0_96_1250)">
<path fill="black" d="M72.5738 16.0032C68.7207 12.7381 62.9076 12.515 59.3143 13.8538C56.1813 15.0289 54.9563 16.2486 53.6273 17.3271C53.5011 17.4238 53.2487 17.632 53.0037 17.632C52.7587 17.632 52.4989 17.4312 52.3801 17.3271C51.0512 16.2486 49.8262 15.0214 46.6932 13.8538C43.0999 12.5076 37.2793 12.7307 33.4336 16.0032C29.6844 19.1864 28.6599 23.6415 29.0385 27.7396C29.3429 31.0344 30.5085 33.7491 31.9859 36.0696C32.758 37.2893 34.6215 39.5429 35.7351 40.7478C40.1822 45.5524 43.9017 48.8398 47.8291 52.1271C49.0392 53.1386 52.0534 55.593 52.2168 55.712C52.4172 55.8533 52.677 56.0616 52.9963 56.0616C53.3155 56.0616 53.5754 55.8533 53.7758 55.712C53.9466 55.593 56.9534 53.1386 58.1635 52.1271C62.0983 48.8398 65.8104 45.5524 70.2575 40.7478C71.3711 39.5429 73.2346 37.2819 74.0067 36.0696C75.4841 33.7491 76.6497 31.0344 76.9541 27.7396C77.3327 23.6415 76.3156 19.1864 72.559 16.0032H72.5738Z"></path>
<path fill="black" d="M91.835 13.8268L83.7143 21.2086C83.5048 21.3991 83.4891 21.7236 83.6792 21.9335L84.7618 23.1288C84.9519 23.3386 85.2759 23.3544 85.4854 23.164L93.6061 15.7821C93.8156 15.5917 93.8314 15.2671 93.6412 15.0572L92.5587 13.862C92.3685 13.6521 92.0446 13.6363 91.835 13.8268Z"></path>
<path fill="black" d="M86.151 7.28211L78.0303 14.6639C77.8207 14.8544 77.805 15.1789 77.9951 15.3888L79.0777 16.5841C79.2678 16.794 79.5918 16.8097 79.8013 16.6193L87.922 9.23745C88.1315 9.047 88.1473 8.72245 87.9572 8.51255L86.8746 7.31732C86.6845 7.10742 86.3605 7.09166 86.151 7.28211Z"></path>
<path fill="black" d="M80.4619 0.731824L72.3412 8.11364C72.1316 8.3041 72.1159 8.62865 72.306 8.83855L73.3886 10.0338C73.5787 10.2437 73.9027 10.2594 74.1122 10.069L82.2329 2.68716C82.4425 2.49671 82.4582 2.17215 82.2681 1.96226L81.1855 0.767023C80.9954 0.557127 80.6714 0.541368 80.4619 0.731824Z"></path>
<path fill="#231815" d="M7.79796 70.8027C7.49357 70.52 7.1669 70.4382 6.84024 70.4382C6.51358 70.4382 6.18691 70.52 5.88252 70.8027C5.55586 71.1076 5.45934 71.5092 5.45934 72.1042V76.3436C5.45934 76.9758 5.40737 78.1063 4.36057 78.1063C3.31376 78.1063 3.26179 76.9758 3.26179 76.3436V72.1042C3.26179 71.5092 3.16528 71.1002 2.83861 70.8027C2.53422 70.52 2.20756 70.4382 1.8809 70.4382C1.55423 70.4382 1.22757 70.52 0.923178 70.8027C0.596514 71.1076 0.5 71.5092 0.5 72.1042V87.0536C0.5 87.6486 0.596514 88.0577 0.923178 88.3552C1.22757 88.6378 1.55423 88.7196 1.8809 88.7196C2.20756 88.7196 2.53422 88.6378 2.83861 88.3552C3.16528 88.0502 3.26179 87.6486 3.26179 87.0536V82.8142C3.26179 82.1821 3.31376 81.0515 4.36057 81.0515C5.40737 81.0515 5.45934 82.1821 5.45934 82.8142V87.0536C5.45934 87.6486 5.55586 88.0577 5.88252 88.3552C6.18691 88.6378 6.51358 88.7196 6.84024 88.7196C7.1669 88.7196 7.49357 88.6378 7.79796 88.3552C8.12462 88.0502 8.22113 87.6486 8.22113 87.0536V72.1042C8.22113 71.5092 8.12462 71.1002 7.79796 70.8027Z"></path>
<path fill="#231815" d="M18.949 72.1042C18.949 71.5092 18.8525 71.1002 18.5259 70.8027C18.2215 70.52 17.8948 70.4382 17.5681 70.4382C17.2415 70.4382 16.9148 70.52 16.6104 70.8027C16.2838 71.1076 16.1872 71.5092 16.1872 72.1042V84.4505C16.1872 84.9562 16.1501 85.2835 15.9719 85.5736C15.7938 85.8562 15.4671 86.0198 15.0885 86.0198C14.7098 86.0198 14.3758 85.8562 14.205 85.5736C14.0268 85.2835 13.9897 84.9562 13.9897 84.4505V72.1042C13.9897 71.5092 13.8932 71.1002 13.5665 70.8027C13.2621 70.52 12.9355 70.4382 12.6088 70.4382C12.2821 70.4382 11.9555 70.52 11.6511 70.8027C11.3244 71.1076 11.2279 71.5092 11.2279 72.1042V84.4505C11.2279 85.2686 11.3021 86.1537 11.8738 87.0536C12.5568 88.1395 13.7595 88.7866 15.0885 88.7866C16.4174 88.7866 17.6201 88.1395 18.3031 87.0536C18.8674 86.1611 18.949 85.2761 18.949 84.4579V72.1117V72.1042Z"></path>
<path fill="#231815" d="M32.9288 70.8027C32.6244 70.52 32.2977 70.4382 31.9711 70.4382C31.7335 70.4382 31.4959 70.4829 31.2583 70.6167C30.902 70.825 30.7164 71.2117 30.657 71.3382C30.5753 71.5092 30.4862 71.7472 30.3971 72.067C30.1521 72.9447 28.5708 78.3964 28.4297 78.8724C28.3035 79.2814 28.0956 79.8467 27.5908 79.8467C27.086 79.8467 26.8707 79.2814 26.7519 78.8724C26.6108 78.3964 25.0295 72.9447 24.7845 72.067C24.6954 71.7472 24.5989 71.5092 24.5246 71.3382C24.4652 71.2117 24.2796 70.825 23.9233 70.6167C23.6931 70.4829 23.4481 70.4382 23.2105 70.4382C22.8839 70.4382 22.5572 70.52 22.2528 70.8027C21.9262 71.1076 21.8297 71.5092 21.8297 72.1042V87.0536C21.8297 87.6486 21.9262 88.0577 22.2528 88.3552C22.5572 88.6378 22.8839 88.7196 23.2105 88.7196C23.5372 88.7196 23.8639 88.6378 24.1683 88.3552C24.4949 88.0502 24.5914 87.6486 24.5914 87.0536V85.2017C24.5914 84.7406 24.688 84.3761 25.0369 84.3464C25.3487 84.3166 25.5269 84.5397 25.6902 85.0232C25.8461 85.4769 26.351 86.9941 26.5143 87.4478C26.7073 88.0056 27.0191 88.4816 27.5982 88.4816C28.1773 88.4816 28.4891 87.9982 28.6822 87.4478C28.8381 86.9867 29.3503 85.4769 29.5062 85.0232C29.6696 84.5397 29.8403 84.3166 30.1596 84.3464C30.5159 84.3761 30.605 84.7406 30.605 85.2017V87.0536C30.605 87.6486 30.7015 88.0577 31.0282 88.3552C31.3326 88.6378 31.6592 88.7196 31.9859 88.7196C32.3126 88.7196 32.6392 88.6378 32.9436 88.3552C33.2703 88.0502 33.3668 87.6486 33.3668 87.0536V72.1042C33.3668 71.5092 33.2703 71.1002 32.9436 70.8027H32.9288Z"></path>
<path fill="#231815" d="M44.9559 86.838L42.6396 72.0672C42.5505 71.4796 42.4094 71.0185 42.0531 70.7582C41.6967 70.4978 41.1622 70.4309 40.687 70.4309C40.2119 70.4309 39.6773 70.4978 39.321 70.7582C38.9646 71.0185 38.831 71.4796 38.7345 72.0672L36.4181 86.838C36.329 87.4256 36.3216 87.8793 36.5963 88.2289C36.8487 88.5561 37.1977 88.7049 37.5243 88.7197C37.7842 88.7346 38.1851 88.7197 38.5266 88.4892C38.8904 88.2363 39.0537 87.857 39.1428 87.2694L39.2987 86.2579C39.3952 85.6629 39.6699 84.9935 40.687 84.9935C41.7041 84.9935 41.9788 85.6629 42.0753 86.2579L42.2312 87.2694C42.3203 87.857 42.4837 88.2437 42.8474 88.4892C43.189 88.7197 43.5899 88.7346 43.8497 88.7197C44.1764 88.6974 44.5179 88.5561 44.7777 88.2289C45.0524 87.8793 45.045 87.433 44.9559 86.838ZM41.4294 81.7508C41.2661 81.9739 40.9914 82.1152 40.687 82.1152C40.3826 82.1152 40.1005 81.9739 39.9446 81.7508C39.759 81.4905 39.707 81.1335 39.707 80.8211C39.707 80.412 39.7664 79.6757 39.9966 78.9989C40.1451 78.5601 40.3455 78.1287 40.687 78.1287C41.0285 78.1287 41.229 78.5601 41.3775 78.9989C41.6076 79.6757 41.667 80.4046 41.667 80.8211C41.667 81.1335 41.615 81.4905 41.4294 81.7508Z"></path>
<path fill="#231815" d="M73.0118 70.8027C72.7075 70.52 72.3808 70.4382 72.0541 70.4382C71.8166 70.4382 71.579 70.4829 71.3414 70.6167C70.9851 70.825 70.7994 71.2117 70.7401 71.3382C70.6584 71.5092 70.5693 71.7472 70.4802 72.067C70.2352 72.9447 68.6539 78.3964 68.5128 78.8724C68.3866 79.2814 68.1787 79.8467 67.6739 79.8467C67.169 79.8467 66.9537 79.2814 66.8349 78.8724C66.6939 78.3964 65.1125 72.9447 64.8675 72.067C64.7784 71.7472 64.6819 71.5092 64.6077 71.3382C64.5483 71.2117 64.3627 70.825 64.0063 70.6167C63.7762 70.4829 63.5312 70.4382 63.2936 70.4382C62.967 70.4382 62.6403 70.52 62.3359 70.8027C62.0092 71.1076 61.9127 71.5092 61.9127 72.1042V87.0536C61.9127 87.6486 62.0092 88.0577 62.3359 88.3552C62.6403 88.6378 62.967 88.7196 63.2936 88.7196C63.6203 88.7196 63.9469 88.6378 64.2513 88.3552C64.578 88.0502 64.6745 87.6486 64.6745 87.0536V85.2017C64.6745 84.7406 64.771 84.3761 65.12 84.3464C65.4318 84.3166 65.61 84.5397 65.7733 85.0232C65.9292 85.4769 66.434 86.9941 66.5974 87.4478C66.7904 88.0056 67.1022 88.4816 67.6813 88.4816C68.2604 88.4816 68.5722 87.9982 68.7652 87.4478C68.9211 86.9867 69.4334 85.4769 69.5893 85.0232C69.7526 84.5397 69.9234 84.3166 70.2426 84.3464C70.599 84.3761 70.6881 84.7406 70.6881 85.2017V87.0536C70.6881 87.6486 70.7846 88.0577 71.1113 88.3552C71.4157 88.6378 71.7423 88.7196 72.069 88.7196C72.3956 88.7196 72.7223 88.6378 73.0267 88.3552C73.3534 88.0502 73.4499 87.6486 73.4499 87.0536V72.1042C73.4499 71.5092 73.3534 71.1002 73.0267 70.8027H73.0118Z"></path>
<path fill="#231815" d="M85.0539 86.838L82.7375 72.0672C82.6484 71.4796 82.5074 71.0185 82.151 70.7582C81.7947 70.4978 81.2601 70.4309 80.785 70.4309C80.3098 70.4309 79.7753 70.4978 79.4189 70.7582C79.0626 71.0185 78.9289 71.4796 78.8324 72.0672L76.5161 86.838C76.427 87.4256 76.4196 87.8793 76.6943 88.2289C76.9467 88.5561 77.2956 88.7049 77.6223 88.7197C77.8821 88.7346 78.283 88.7197 78.6245 88.4892C78.9883 88.2363 79.1517 87.857 79.2407 87.2694L79.3967 86.2579C79.4932 85.6629 79.7679 84.9935 80.785 84.9935C81.8021 84.9935 82.0768 85.6629 82.1733 86.2579L82.3292 87.2694C82.4183 87.857 82.5816 88.2437 82.9454 88.4892C83.2869 88.7197 83.6878 88.7346 83.9477 88.7197C84.2743 88.6974 84.6158 88.5561 84.8757 88.2289C85.1504 87.8793 85.143 87.433 85.0539 86.838ZM81.5274 81.7508C81.3641 81.9739 81.0894 82.1152 80.785 82.1152C80.4806 82.1152 80.1985 81.9739 80.0426 81.7508C79.857 81.4905 79.805 81.1335 79.805 80.8211C79.805 80.412 79.8644 79.6757 80.0945 78.9989C80.243 78.5601 80.4435 78.1287 80.785 78.1287C81.1265 78.1287 81.3269 78.5601 81.4754 78.9989C81.7056 79.6757 81.765 80.4046 81.765 80.8211C81.765 81.1335 81.713 81.4905 81.5274 81.7508Z"></path>
<path fill="#231815" d="M55.3052 70.8028C55.0008 70.5202 54.6741 70.4383 54.3475 70.4383C54.0208 70.4383 53.6942 70.5202 53.3898 70.8028C53.0631 71.1077 52.9666 71.5093 52.9666 72.1043V74.7893C52.9666 75.0496 52.922 75.5925 52.432 75.5925C51.942 75.5925 51.7861 74.8042 51.6228 74.224C51.4669 73.6439 51.1551 72.4093 51.014 71.8663C50.9324 71.5465 50.7765 71.1003 50.4201 70.7879C50.2048 70.602 49.8633 70.4309 49.3807 70.4309C49.054 70.4309 48.7274 70.5127 48.423 70.7953C48.0963 71.1003 47.9998 71.5019 47.9998 72.0969V87.0389C47.9998 87.6339 48.0963 88.0429 48.423 88.3404C48.7274 88.623 49.054 88.7049 49.3807 88.7049C49.7074 88.7049 50.034 88.623 50.3384 88.3404C50.6651 88.0355 50.7616 87.6339 50.7616 87.0389V84.3539C50.7616 84.0936 50.8062 83.5507 51.2961 83.5507C51.7861 83.5507 51.9421 84.339 52.1054 84.9192C52.2613 85.4993 52.5731 86.7339 52.7142 87.2769C52.7958 87.5967 52.9517 88.0429 53.3081 88.3553C53.5234 88.5412 53.8649 88.7123 54.3475 88.7123C54.6741 88.7123 55.0008 88.6305 55.3052 88.3479C55.6319 88.0429 55.7284 87.6413 55.7284 87.0463V72.1043C55.7284 71.5093 55.6319 71.1003 55.3052 70.8028Z"></path>
<path fill="#231815" d="M93.7104 71.1447C93.0126 70.7431 92.3815 70.5349 91.3124 70.4605C90.9041 70.4307 90.3844 70.4233 89.9612 70.4605C89.6197 70.4902 89.0258 70.5349 88.5952 70.9588C88.224 71.3232 88.0903 71.8141 88.0903 72.4091V86.7635C88.0903 87.3585 88.224 87.8494 88.5952 88.2138C89.0258 88.6377 89.6123 88.6824 89.9612 88.7121C90.3844 88.7419 90.9041 88.7344 91.3124 88.7121C92.3889 88.6377 93.0126 88.4369 93.7104 88.0279C94.6013 87.5147 95.663 86.4065 95.663 84.0339V75.1461C95.663 72.781 94.6013 71.6728 93.7104 71.1522V71.1447ZM92.9012 84.0265C92.9012 84.852 92.7304 85.2537 92.5523 85.4396C92.2776 85.7371 91.9806 85.8412 91.5945 85.7892C91.0823 85.7222 90.8521 85.3429 90.8521 84.8669V74.2834C90.8521 73.8074 91.0823 73.4355 91.5945 73.3611C91.9806 73.309 92.2776 73.4132 92.5523 73.7107C92.7304 73.8966 92.9012 74.2982 92.9012 75.1238V84.0116V84.0265Z"></path>
<path fill="#231815" d="M103.83 85.9679H102.775C101.677 85.9679 101.417 85.6257 101.417 84.6068V82.3235C101.417 81.3045 101.677 80.9624 102.775 80.9624H103.295C103.889 80.9624 104.297 80.8657 104.594 80.5385C104.876 80.2335 104.958 79.9063 104.958 79.579C104.958 79.2518 104.876 78.9245 104.594 78.6196C104.29 78.2924 103.889 78.1957 103.295 78.1957H102.775C101.677 78.1957 101.417 77.8535 101.417 76.8346V74.5587C101.417 73.5398 101.677 73.1977 102.775 73.1977H103.83C104.423 73.1977 104.832 73.101 105.129 72.7737C105.411 72.4688 105.493 72.1415 105.493 71.8143C105.493 71.487 105.411 71.1598 105.129 70.8548C104.824 70.5276 104.423 70.4309 103.83 70.4309H100.036C99.7091 70.4309 99.3825 70.5127 99.0781 70.7953C98.7514 71.1003 98.6549 71.5019 98.6549 72.0969V87.0463C98.6549 87.6413 98.7514 88.0504 99.0781 88.3479C99.3825 88.6305 99.7091 88.7123 100.036 88.7123H103.83C104.423 88.7123 104.832 88.6156 105.129 88.2884C105.411 87.9834 105.493 87.6562 105.493 87.3289C105.493 87.0017 105.411 86.6744 105.129 86.3695C104.824 86.0422 104.423 85.9455 103.83 85.9455V85.9679Z"></path>
<path fill="#231815" d="M45.6909 95.5695C45.4682 95.3613 45.2306 95.3018 44.993 95.3018C44.7555 95.3018 44.5179 95.3613 44.2952 95.5695C44.0576 95.7926 43.9908 96.0827 43.9908 96.5141V107.38C43.9908 107.812 44.065 108.109 44.2952 108.325C44.5179 108.533 44.7555 108.593 44.993 108.593C45.2306 108.593 45.4682 108.533 45.6909 108.325C45.9285 108.102 45.9953 107.812 45.9953 107.38V96.5141C45.9953 96.0827 45.9211 95.7852 45.6909 95.5695Z"></path>
<path fill="#231815" d="M53.5086 99.0949C53.3081 98.9016 53.0111 98.6933 52.5954 98.5595C52.2687 98.4553 51.8678 98.3884 51.3927 98.4851C51.0289 98.5595 50.7022 98.7082 50.3459 98.7751C50.0489 98.8346 49.7445 98.7751 49.6109 98.7379C49.455 98.6933 49.2545 98.6636 49.1506 98.6636C48.913 98.6636 48.6754 98.7231 48.4527 98.9313C48.2151 99.1545 48.1483 99.4445 48.1483 99.8759V107.388C48.1483 107.819 48.2226 108.117 48.4527 108.332C48.6754 108.541 48.913 108.6 49.1506 108.6C49.3882 108.6 49.6257 108.541 49.8485 108.332C50.086 108.109 50.1528 107.819 50.1528 107.388V101.676C50.1528 101.326 50.1825 101.006 50.4869 100.664C50.7022 100.426 51.1551 100.3 51.608 100.441C52.1277 100.597 52.2539 101.073 52.2539 101.453V107.388C52.2539 107.819 52.3281 108.117 52.5583 108.332C52.781 108.541 53.0186 108.6 53.2561 108.6C53.4937 108.6 53.7313 108.541 53.954 108.332C54.1916 108.109 54.2584 107.819 54.2584 107.388V101.006C54.2584 100.24 53.9911 99.5635 53.5011 99.0949H53.5086Z"></path>
<path fill="#231815" d="M64.7116 108.533C65.3267 108.533 65.8253 108.034 65.8253 107.418C65.8253 106.801 65.3267 106.302 64.7116 106.302C64.0966 106.302 63.598 106.801 63.598 107.418C63.598 108.034 64.0966 108.533 64.7116 108.533Z"></path>
<path fill="black" d="M61.0589 104.777C60.7843 104.777 60.5467 104.874 60.3908 105.06C60.2794 105.201 60.2423 105.343 60.1977 105.558C60.1384 105.841 60.0567 106.183 59.9082 106.376C59.782 106.54 59.6038 106.681 59.3217 106.696C59.0247 106.711 58.6906 106.622 58.4902 106.019C58.3491 105.573 58.3417 104.867 58.3417 104.398V103.037C58.3417 102.576 58.3417 101.862 58.4902 101.416C58.6832 100.813 59.0247 100.716 59.3217 100.739C59.6112 100.754 59.782 100.895 59.9082 101.059C60.0567 101.252 60.1384 101.594 60.1977 101.877C60.2423 102.092 60.2794 102.234 60.3908 102.375C60.5393 102.561 60.7843 102.658 61.0589 102.658C61.393 102.658 61.6603 102.546 61.8533 102.33C62.0389 102.115 62.1058 101.832 62.0538 101.363C61.9944 100.85 61.8162 100.397 61.4821 99.9429C61.0886 99.4074 60.3165 98.8347 59.3291 98.8347C58.0373 98.8347 57.0647 99.571 56.6713 100.865C56.5154 101.371 56.4337 101.981 56.4263 102.777C56.4263 103.029 56.4263 104.405 56.4263 104.658C56.4337 105.454 56.5154 106.064 56.6713 106.57C57.0722 107.856 58.0373 108.6 59.3291 108.6C60.3165 108.6 61.0886 108.027 61.4821 107.492C61.8162 107.038 62.0018 106.585 62.0538 106.071C62.1058 105.603 62.0389 105.313 61.8533 105.105C61.6677 104.889 61.393 104.777 61.0589 104.777Z"></path>
</g>
<defs>
<clipPath id="clip0_96_1250">
<rect transform="translate(0.5 0.600098)" fill="white" height="108" width="105"></rect>
</clipPath>
</defs>
</svg>
