<svg xmlns="http://www.w3.org/2000/svg" fill="none" viewBox="0 0 200 139" height="139" width="200">
<g clip-path="url(#clip0_5_1792)">
<path fill="#E71F19" d="M133.758 48.2063C127.168 42.7277 117.203 42.356 111.053 44.6098C105.686 46.5759 103.595 48.6259 101.321 50.4361C101.113 50.6039 100.673 50.9396 100.245 50.9396C99.8172 50.9396 99.3893 50.6039 99.1692 50.4361C96.8951 48.6259 94.7922 46.5759 89.437 44.6098C83.2871 42.356 73.3348 42.7396 66.7326 48.2063C60.3137 53.541 58.5653 61.0097 59.2133 67.867C59.739 73.3816 61.732 77.9371 64.2628 81.8213C65.5833 83.8593 68.7744 87.6476 70.6817 89.6616C78.2987 97.7177 84.6565 103.22 91.3932 108.735C93.4717 110.437 98.619 114.549 98.9125 114.741C99.2548 114.981 99.7072 115.316 100.245 115.316C100.783 115.316 101.248 114.969 101.578 114.741C101.871 114.537 107.019 110.425 109.097 108.735C115.834 103.232 122.192 97.7177 129.809 89.6616C131.716 87.6476 134.895 83.8593 136.227 81.8213C138.758 77.9371 140.751 73.3816 141.277 67.867C141.925 61.0097 140.177 53.541 133.758 48.2063Z"></path>
<path fill="#E71F19" d="M142.357 22.2422L128.364 35.7153C128.022 36.0446 128.017 36.5835 128.353 36.9189L130.298 38.8606C130.633 39.196 131.183 39.2009 131.525 38.8715L145.518 25.3984C145.86 25.0691 145.865 24.5302 145.529 24.1948L143.584 22.2531C143.248 21.9177 142.699 21.9128 142.357 22.2422Z"></path>
<path fill="#E71F19" d="M154.792 29.9392L140.244 42.9595C139.89 43.2764 139.865 43.8148 140.188 44.162L142.059 46.1719C142.383 46.5191 142.932 46.5436 143.286 46.2267L157.833 33.2063C158.187 32.8894 158.212 32.3511 157.889 32.0039L156.018 29.994C155.695 29.6468 155.146 29.6222 154.792 29.9392Z"></path>
<path fill="#E71F19" d="M164.264 41.0842L150.006 53.0875C149.643 53.3937 149.601 53.9311 149.913 54.2877L151.721 56.3524C152.033 56.7091 152.582 56.75 152.945 56.4437L167.203 44.4404C167.567 44.1342 167.608 43.5968 167.296 43.2402L165.488 41.1755C165.176 40.8188 164.628 40.7779 164.264 41.0842Z"></path>
<path fill="white" d="M111.188 85.8374C111.188 84.4468 111.188 83.0682 111.188 81.6775C111.188 80.167 111.273 78.9202 110.577 77.7574C109.66 76.2349 107.801 76.2469 106.31 76.2349C105.062 76.2708 104.549 76.5945 104.549 77.8653V90.2611C104.549 90.9324 104.537 91.5079 105.124 91.7956C105.429 91.9394 105.759 91.9994 106.089 91.9994C106.774 91.9994 107.471 91.9994 108.156 91.9514C109.268 91.8675 109.904 91.5079 110.357 90.9804C111.408 89.7576 111.163 87.5997 111.188 85.8254V85.8374ZM108.828 87.3959C108.828 88.2591 108.804 89.0743 108.205 89.35C108.046 89.4219 107.74 89.4699 107.557 89.4579C107.263 89.4579 106.982 89.4459 106.909 88.9784C106.848 88.6067 106.86 80.119 106.86 79.4477C106.86 79.16 106.921 78.8243 107.337 78.7764C107.606 78.7524 107.96 78.7164 108.351 79.0401C108.694 79.3278 108.828 79.6275 108.828 80.5986V87.3839V87.3959Z"></path>
<path fill="white" d="M105.062 71.2117C105.075 70.5884 105.062 69.977 105.062 69.3536C105.062 66.2126 105.062 63.0717 105.062 59.9428C105.062 59.3314 105.099 58.708 105.001 58.0966C104.891 57.5571 104.561 57.1256 103.962 57.1016C103.424 57.0536 102.911 57.2814 102.69 57.7849C101.945 59.8109 101.394 61.9209 100.746 63.9828C100.661 64.2586 100.612 64.5703 100.465 64.822C100.16 65.3855 99.5605 65.3495 99.3405 64.7501C98.778 62.9878 98.3134 61.2016 97.8366 59.4273C97.5799 58.4323 97.262 56.8618 95.8682 57.1256C94.89 57.2694 94.8411 58.3364 94.89 59.1156C94.89 60.6861 94.89 62.2565 94.89 63.815C94.89 66.3205 94.89 68.8141 94.89 71.3196C94.89 71.8471 94.9634 72.4345 95.4647 72.7342C95.8926 72.986 96.4673 72.938 96.7974 72.5544C97.3109 71.9071 97.2008 70.96 97.2008 69.953C97.2008 69.7132 97.1764 69.4135 97.372 69.2337C97.5309 69.0778 97.7877 69.0898 97.9589 69.2217C98.1789 69.4015 98.3012 69.8451 98.3746 70.0729C98.5946 70.6723 98.7414 71.0679 98.9614 71.6553C99.1326 72.1348 99.5239 72.8182 100.111 72.8182C101.04 72.8182 101.419 71.1398 101.725 70.1808C101.81 69.929 101.859 69.6053 102.018 69.3775C102.14 69.1977 102.397 69.1018 102.568 69.2696C102.764 69.4495 102.739 69.7851 102.739 70.0249C102.739 71.0079 102.69 72.1109 103.155 72.5065C103.571 72.8541 104.011 72.962 104.476 72.6863C104.977 72.4226 105.026 71.7152 105.038 71.2237L105.062 71.2117Z"></path>
<path fill="white" d="M99.316 79.5677C99.1937 78.8004 99.0959 78.177 98.9125 77.4218C98.8392 77.1221 98.6558 76.6545 98.2523 76.4747C97.6288 76.199 97.1153 76.211 96.4183 76.3188C95.7948 76.4148 95.587 76.8223 95.4158 77.6855C95.3424 78.0451 95.2691 78.5247 95.2079 78.8963C94.5966 82.6846 93.9242 86.4609 93.4596 90.2612C93.4229 90.6208 93.3373 91.0284 93.4718 91.3881C93.7163 92.0114 94.6455 92.1073 95.159 91.7357C95.4158 91.5439 95.5503 91.2082 95.6359 90.9085C95.7948 90.2612 95.8926 89.5179 96.186 89.0743C96.3694 88.7986 96.6873 88.7267 97.2864 88.7267C97.7755 88.7267 98.0445 88.8106 98.2523 89.0863C98.4602 89.362 98.4846 89.7696 98.5702 90.0933C98.6558 90.4769 98.7047 90.6927 98.8025 91.0764C98.9248 91.5199 99.206 91.7477 99.4994 91.8436C100.123 92.0594 101.138 91.7717 101.015 90.7886C100.93 90.0454 100.844 89.5539 100.759 88.8106C100.319 85.7176 99.8173 82.6366 99.3282 79.5557L99.316 79.5677ZM98.1178 85.5138C98.0567 85.8615 97.8611 86.2331 97.2375 86.2331C96.6751 86.2331 96.4917 85.9574 96.4061 85.6697C96.3694 85.5378 96.3572 85.346 96.3572 85.2021C96.3572 84.6507 96.6751 82.7805 97.2253 82.7805C97.5676 82.7805 97.7633 83.26 97.8977 83.7396C98.0567 84.279 98.2156 84.9384 98.1178 85.5018V85.5138Z"></path>
<path fill="white" d="M89.8772 79.028C89.8772 78.4166 89.9139 77.7932 89.8161 77.1818C89.706 76.6423 89.3759 76.2108 88.7768 76.1868C88.2389 76.1388 87.7254 76.3666 87.5053 76.8701C86.7595 78.8961 86.2093 80.9941 85.5735 83.068C85.4879 83.3438 85.439 83.6435 85.2923 83.9072C84.9867 84.4587 84.3998 84.4347 84.1675 83.8353C83.6051 82.085 83.1405 80.2868 82.6636 78.5125C82.4069 77.5175 82.089 75.947 80.6952 76.2108C79.7171 76.3546 79.6682 77.4216 79.7171 78.2008C79.7171 79.7713 79.7171 81.3297 79.7171 82.9002C79.7171 85.3938 79.7171 87.8993 79.7171 90.3929C79.7171 90.9203 79.7904 91.5078 80.2917 91.8075C80.7196 92.0592 81.2943 92.0113 81.6244 91.6276C82.1379 90.9803 82.0279 90.0332 82.0279 89.0262C82.0279 88.7864 82.0034 88.4867 82.199 88.3069C82.358 88.1511 82.6147 88.163 82.7859 88.2949C83.006 88.4747 83.1282 88.9183 83.2016 89.1461C83.4217 89.7455 83.5684 90.1411 83.7885 90.7285C83.9596 91.2081 84.3509 91.8914 84.9377 91.8914C85.867 91.8914 86.246 90.213 86.5516 89.254C86.6372 89.0022 86.6861 88.6785 86.8451 88.4508C86.9673 88.2709 87.2241 88.175 87.3953 88.3429C87.5909 88.5227 87.5664 88.8584 87.5664 89.0981C87.5664 90.0812 87.5175 91.1841 87.9821 91.5797C88.3978 91.9273 88.838 92.0352 89.3026 91.7595C89.8039 91.4958 89.8528 90.7885 89.865 90.3089C89.8772 89.6855 89.865 89.0741 89.865 88.4508C89.865 85.3098 89.865 82.1809 89.865 79.04L89.8772 79.028Z"></path>
<path fill="white" d="M80.5975 72.2787C80.8787 71.7991 80.8298 71.1997 80.8298 70.6723V65.5173C80.8298 63.2276 80.8298 60.9258 80.8298 58.6361C80.8298 57.8209 80.573 57.0776 79.6438 57.0776C78.7146 57.0776 78.4334 57.665 78.4456 58.5282C78.4456 59.6551 78.4456 61.5612 78.4456 62.6881C78.4456 63.0957 78.3478 63.8869 77.4186 63.8869C76.6361 63.8869 76.4405 63.1916 76.4405 62.772C76.4405 61.6451 76.4405 59.775 76.4405 58.6481C76.4405 58.2045 76.4405 57.653 76.0492 57.3413C75.658 57.0296 75.0589 56.9817 74.6187 57.2215C74.1786 57.4612 74.0808 58.0726 74.0441 58.5162C73.9952 62.4963 74.0319 67.1717 74.0319 71.1518C74.0319 72.3986 74.4231 72.8301 75.2423 72.8301C76.1715 72.8301 76.4405 72.0629 76.4405 71.0079C76.4405 70.4325 76.4405 68.2386 76.4405 67.6632C76.4405 66.7881 76.6361 66.2726 77.4553 66.2726C78.1766 66.2726 78.4456 66.7161 78.4456 67.7232C78.4456 68.2866 78.4456 70.1088 78.4456 70.6723C78.4456 71.1758 78.4212 71.7032 78.6168 72.1708C78.8002 72.6143 79.1181 72.8181 79.6927 72.8181C80.084 72.8181 80.4263 72.6143 80.5975 72.2547V72.2787Z"></path>
<path fill="white" d="M91.1854 57.9049C90.8308 56.9578 89.3881 56.8019 89.0091 57.7011C88.789 58.1926 88.789 58.78 88.789 59.3075C88.789 62.1367 88.789 65.5773 88.789 68.4065C88.789 69.3536 88.5811 70.2647 87.8475 70.2647C87.2974 70.2647 86.9183 69.7252 86.9183 68.7662C86.9183 67.915 86.9183 67.1598 86.9183 66.3086C86.9183 64.0548 86.9183 61.801 86.9183 59.5353C86.9183 58.6721 87.0773 57.3054 85.928 57.0897C84.522 56.9818 84.3752 58.0008 84.3752 59.1037C84.3752 61.3575 84.3752 63.7551 84.3752 66.0089C84.3997 67.6513 84.3141 69.4615 84.8398 70.96C85.6223 73.1898 88.4344 73.5015 89.9627 72.2308C91.2343 71.1638 91.3565 69.3416 91.381 67.8671C91.381 65.0618 91.381 62.2686 91.381 59.4633C91.3565 58.9358 91.381 58.3844 91.1976 57.8929L91.1854 57.9049Z"></path>
<path fill="white" d="M126.483 61.8729C126.483 60.9018 126.483 59.9188 126.483 58.9478C126.483 58.5162 126.532 58.0247 126.336 57.6171C125.982 56.8618 124.429 56.8378 124.356 58.2404C124.307 59.1755 124.319 59.4513 124.27 60.6021C124.258 60.9618 124.307 61.4653 123.854 61.5492C123.414 61.6091 123.243 61.3214 123.072 60.8059C122.925 60.3504 122.815 59.8708 122.681 59.4153C122.424 58.4802 122.351 57.5931 121.482 57.2095C121.116 57.0536 120.786 57.0776 120.419 57.2214C119.661 57.5691 119.771 58.9118 119.746 59.6071C119.759 63.4913 119.71 67.3635 119.759 71.2477C119.759 72.1468 120.101 72.926 121.165 72.8062C122.155 72.6143 122.033 71.3915 122.082 70.6243C122.13 69.7971 122.082 69.1258 122.485 68.922C122.681 68.8141 122.925 68.91 123.06 69.0299C123.316 69.2217 123.439 69.6772 123.573 70.0489C123.879 70.8641 123.989 71.3196 124.405 72.1708C124.71 72.7822 125.187 72.9021 125.615 72.8181C126.532 72.6383 126.459 71.4275 126.459 70.6722C126.459 67.7471 126.459 64.81 126.459 61.8849L126.483 61.8729Z"></path>
<path fill="white" d="M116.201 71.7152C116.115 70.9719 116.03 70.4804 115.944 69.7252C115.504 66.6322 115.003 63.5512 114.514 60.4702C114.391 59.703 114.293 59.0796 114.11 58.3243C114.037 58.0246 113.853 57.5571 113.45 57.3773C112.826 57.1016 112.313 57.1135 111.616 57.2214C110.992 57.3173 110.784 57.7249 110.613 58.5881C110.54 58.9477 110.467 59.4273 110.405 59.7989C109.794 63.5872 109.122 67.3635 108.657 71.1637C108.62 71.5234 108.535 71.931 108.669 72.2906C108.914 72.914 109.855 73.0099 110.357 72.6383C110.613 72.4465 110.748 72.1108 110.833 71.8111C110.992 71.1637 111.09 70.4205 111.384 69.9769C111.567 69.7012 111.885 69.6293 112.484 69.6293C112.973 69.6293 113.242 69.7132 113.45 69.9889C113.658 70.2646 113.682 70.6722 113.768 70.9959C113.853 71.3795 113.902 71.5953 114 71.9789C114.122 72.4225 114.403 72.6503 114.697 72.7462C115.32 72.962 116.335 72.6743 116.213 71.6912L116.201 71.7152ZM113.303 66.4164C113.242 66.7761 113.046 67.1357 112.423 67.1357C111.86 67.1357 111.677 66.86 111.591 66.5723C111.555 66.4404 111.542 66.2486 111.542 66.1047C111.542 65.5533 111.86 63.6831 112.411 63.6831C112.753 63.6831 112.949 64.1626 113.083 64.6421C113.242 65.1816 113.401 65.841 113.303 66.4044V66.4164Z"></path>
<path fill="white" d="M117.753 78.6444C117.949 78.5845 118.353 78.5845 118.548 78.5725C118.768 78.5725 118.988 78.5605 119.208 78.5365C119.6 78.5126 120.015 78.4886 120.333 78.2368C120.651 77.9971 120.786 77.6254 120.773 77.2418C120.773 77.026 120.676 76.5585 120.15 76.3667C119.734 76.2228 119.074 76.1868 118.854 76.1748C118.414 76.1509 116.959 76.1748 116.188 76.1988C115.968 76.1988 115.712 76.2348 115.492 76.2947C115.015 76.4386 114.734 76.8582 114.734 77.7573C114.734 78.1889 114.709 90.0452 114.721 90.261C114.721 90.4768 114.721 90.6926 114.758 90.9084C114.819 91.28 114.99 91.6277 115.333 91.8315C115.687 92.0473 116.103 92.0473 116.506 92.0473C117.423 92.0712 118.304 92.0593 119.208 92.0473C119.416 92.0473 119.636 92.0473 119.832 91.9873C120.015 91.9394 120.199 91.8555 120.345 91.7476C120.663 91.5078 120.786 91.1362 120.749 90.7525C120.724 90.5727 120.663 90.4049 120.553 90.249C120.297 89.9014 119.697 89.7935 119.49 89.7695C119.27 89.7455 118.401 89.7096 118.194 89.6856C117.998 89.6616 117.692 89.6376 117.521 89.4938C117.264 89.266 117.203 88.9423 117.179 88.6067C117.167 88.3909 117.179 86.8444 117.179 86.6286C117.179 86.4248 117.154 85.9692 117.338 85.7415C117.57 85.4298 118.01 85.4058 118.157 85.3818C118.377 85.3458 118.585 85.3339 118.805 85.3099C119.013 85.2859 119.257 85.2739 119.453 85.214C119.808 85.1061 120.125 84.9263 120.248 84.5187C120.358 84.1231 120.321 83.7274 120.076 83.4397C119.918 83.2479 119.771 83.164 119.539 83.0921C119.331 83.0321 119.123 83.0081 118.903 82.9722C118.683 82.9482 117.766 82.9122 117.521 82.7324C117.228 82.5166 117.216 82.2409 117.191 81.9052C117.167 81.6894 117.216 79.7713 117.216 79.4237C117.216 78.9801 117.374 78.7283 117.753 78.6204V78.6444Z"></path>
</g>
<defs>
<clipPath id="clip0_5_1792">
<rect transform="translate(33 22)" fill="white" height="93.3284" width="134.503"></rect>
</clipPath>
</defs>
</svg>
