<svg xmlns="http://www.w3.org/2000/svg" fill="none" viewBox="0 0 200 139" height="139" width="200">
<g clip-path="url(#clip0_5_1813)">
<path fill="#231815" d="M38.2314 62.5931C39.2147 62.5931 39.8197 62.6567 41.6854 62.6567C43.5511 62.6567 44.1309 62.5931 45.0512 62.5931C45.1394 62.6567 45.1394 63.2169 45.0512 63.3188C44.5595 63.4079 44.1814 63.5097 43.9545 63.5989C43.7023 63.7262 43.6897 63.9808 43.7276 64.1463C44.3957 66.438 45.4798 69.5955 46.0218 71.0724C46.0722 71.1361 46.1353 71.0979 46.1605 71.0469C46.9925 69.0862 48.3791 65.1776 48.8959 63.306C49.2489 63.3697 50.1565 63.3442 50.4843 63.306C51.0515 64.9866 53.245 70.283 53.7996 71.4925C53.85 71.518 53.9131 71.518 53.9383 71.4671C54.6568 69.4427 55.7283 66.0052 55.9804 64.8338C56.0939 64.2227 56.0434 63.7898 55.4132 63.5989C55.0098 63.4461 54.6316 63.4079 53.9509 63.306C53.8374 63.2169 53.9005 62.6312 53.9761 62.5803C54.4929 62.5803 55.4762 62.644 56.7998 62.644C58.2999 62.644 58.9806 62.5803 59.4722 62.5803C59.5227 62.644 59.5353 63.2042 59.4722 63.306C59.0184 63.4079 58.8167 63.4333 58.5268 63.5352C58.01 63.7262 57.72 64.0445 57.4049 64.8338C56.3334 67.5839 54.4929 72.9312 53.5475 75.6813C53.1945 75.6558 52.2491 75.6431 51.9087 75.7195C51.3289 74.0644 49.3245 68.9971 48.7069 67.6857C48.6816 67.6476 48.6186 67.6603 48.5934 67.7112C47.7236 69.8756 46.2109 73.7079 45.568 75.6813C45.2276 75.6431 44.2948 75.6176 43.9292 75.6813C43.2359 72.8803 41.219 66.9855 40.387 64.8848C40.1601 64.35 39.8702 63.7771 39.3785 63.5861C38.9752 63.4333 38.7735 63.3952 38.1684 63.306C38.118 63.2169 38.118 62.6312 38.2314 62.5803V62.5931Z"></path>
<path fill="#231815" d="M75.5195 68.717C75.3934 68.7679 74.7884 68.8189 74.6875 68.7679C74.4858 67.7621 74.1833 67.0746 73.5782 66.7181C73.2757 66.5526 72.9227 66.4508 72.4941 66.4508C71.763 66.4508 71.2587 66.9091 71.2587 67.4566C71.2587 68.1313 71.5108 68.4878 73.7043 69.4427C75.6708 70.283 76.3263 71.0978 76.3263 72.4092C76.3263 74.5099 74.1833 75.7322 71.8134 75.7322C70.5024 75.7322 69.4183 75.4903 68.6367 75.2484C68.5359 74.7518 68.309 72.6638 68.2838 72.2564C68.3594 72.18 68.9897 71.9891 69.1409 72.0145C69.5443 73.275 70.0234 74.0261 70.7797 74.4463C71.1831 74.6882 71.7378 74.8028 72.1411 74.8028C72.9479 74.8028 73.4521 74.3954 73.4521 73.8224C73.4521 73.1731 72.9983 72.7912 71.8638 72.2692C69.267 71.0978 68.5359 70.1939 68.5359 68.7297C68.5359 67.011 69.9477 65.5723 72.7966 65.5723C73.2 65.5723 74.0824 65.6232 74.5867 65.6869C75.217 65.7887 75.5195 65.8269 75.822 65.8269C75.6456 66.6672 75.5951 67.6603 75.5195 68.6915V68.717Z"></path>
<path fill="#231815" d="M81.2047 67.3293C81.2047 67.3293 81.1039 67.4184 81.1039 67.4693C81.1039 68.3733 81.0786 70.0793 81.0786 71.1997C81.0786 72.0655 81.0786 72.5111 81.1795 72.9949C81.2551 73.4914 81.7089 73.9243 82.4653 73.9243C82.9695 73.9243 83.3729 73.8479 83.8267 73.5933C83.8771 73.7079 83.8771 74.2171 83.8015 74.4336C83.0956 75.3248 81.9106 75.7195 80.7761 75.7195C79.6416 75.7195 78.6583 75.363 78.1793 74.5736C77.8011 73.9243 77.8011 73.2877 77.8011 71.9254C77.8011 70.7287 77.8263 68.577 77.8263 67.5712C77.8263 67.4821 77.7759 67.3547 77.6751 67.3293C77.3221 67.2784 76.8431 67.2784 76.4649 67.2274C76.4649 67.0619 76.591 66.4635 76.6918 66.2471C77.0196 66.1707 77.5238 66.0561 77.7003 65.9797C77.7507 65.9797 77.8011 65.8779 77.8263 65.7887V63.7517C78.6331 63.5352 80.2214 62.7968 80.6248 62.4912C80.7257 62.4658 81.0786 62.4148 81.2047 62.4403C81.1291 62.9878 81.1039 64.1336 81.1039 65.6869C81.1039 65.7887 81.1543 65.8779 81.2047 65.8779C81.7341 65.8779 83.2721 65.8015 83.9528 65.7887C83.8771 66.1962 83.7259 66.9346 83.7007 67.342C82.9443 67.3165 82.0619 67.3165 81.2047 67.3165V67.3293Z"></path>
<path fill="#231815" d="M106.643 74.7773C105.635 75.2484 102.786 75.8341 102.231 75.8341C102.181 75.8341 102.055 75.694 102.03 75.6176C101.979 75.4012 102.004 74.8537 101.979 74.4463C101.979 74.4208 101.903 74.3699 101.853 74.3954C100.744 75.1084 99.3319 75.6813 98.4999 75.6813C97.3654 75.6813 96.4578 75.1975 95.777 74.3954C95.0711 73.5805 94.6173 72.3201 94.6173 70.9833C94.6173 69.3281 95.4241 67.8258 96.5838 67.011C97.5923 66.2471 99.7101 65.5596 101.223 65.5596H101.903C101.903 65.5596 102.03 65.5086 102.03 65.4577C102.03 64.3882 102.03 65.4195 101.954 64.7575C101.929 64.4264 101.878 64.019 101.424 63.8535C101.071 63.7389 100.618 63.6371 100.063 63.5861C99.9874 63.4715 100.038 62.8732 100.164 62.8222C101.601 62.8222 104.45 62.4403 105.433 62.1093C105.509 62.1602 105.61 62.4403 105.61 62.5421C105.332 62.9241 105.332 63.306 105.307 65.1267C105.282 66.5781 105.282 65.8524 105.282 69.0481C105.282 69.8629 105.282 71.9636 105.307 72.9185C105.332 73.7333 105.484 73.8988 105.736 73.9243C106.013 73.9752 106.265 73.9752 106.82 73.9752C106.845 74.0644 106.719 74.7137 106.643 74.7901V74.7773ZM98.7268 67.0874C98.2982 67.5457 97.9957 68.3478 97.9957 69.621C97.9957 72.2055 99.2058 73.797 100.945 73.797C101.198 73.797 101.525 73.7461 101.803 73.5806C101.903 73.5042 101.979 73.3896 102.004 73.1477C102.03 72.4092 102.055 69.6592 102.004 68.3478C101.979 67.6985 101.727 67.3165 101.324 67.0364C100.845 66.7054 100.391 66.5781 99.8865 66.5781C99.5336 66.5781 99.105 66.7181 98.7268 67.0746V67.0874Z"></path>
<path fill="#231815" d="M107.211 62.5931C107.992 62.5931 109.114 62.6567 110.312 62.6567C111.812 62.6567 113.337 62.6185 113.74 62.5931C113.829 62.6822 113.854 63.2296 113.766 63.3188C113.564 63.3442 113.249 63.4206 113.072 63.4715C112.732 63.5607 112.782 63.7898 112.921 64.0827C113.324 64.9357 114.938 67.9531 115.278 68.5006C115.329 68.526 115.392 68.526 115.43 68.5006C116.148 67.3293 117.446 64.9739 117.699 64.21C117.787 63.828 117.724 63.6371 117.232 63.5097C116.854 63.4206 116.564 63.3824 116.072 63.3188C116.022 63.1533 116.072 62.6567 116.161 62.5931C116.728 62.5931 117.711 62.6567 118.871 62.6567C120.031 62.6567 120.686 62.5931 121.379 62.5931C121.468 62.6567 121.468 63.2296 121.379 63.3188C120.976 63.3824 120.573 63.4206 120.371 63.5097C119.741 63.7262 119.4 63.9299 118.732 64.9102C117.925 66.1834 116.577 68.4751 116.085 69.4173C115.909 69.7738 115.833 69.9647 115.833 70.4358C115.833 71.4289 115.858 72.2819 115.883 73.3641C115.909 73.9752 115.946 74.4718 116.627 74.5991C116.967 74.6882 117.371 74.7519 117.888 74.8283C117.951 74.8919 117.888 75.4648 117.825 75.554C117.056 75.554 115.404 75.4648 114.081 75.4648C112.291 75.4648 111.61 75.554 110.652 75.554C110.564 75.4648 110.589 74.8792 110.652 74.8283C111.282 74.7391 111.711 74.6755 112.026 74.5991C112.606 74.4718 112.681 74.0007 112.681 73.4023C112.732 72.4092 112.732 71.5562 112.732 70.6395C112.732 70.2958 112.618 69.9647 112.442 69.5573C111.976 68.6279 110.69 66.3489 109.908 65.0503C109.127 63.7771 108.786 63.5861 108.219 63.4333C107.904 63.3697 107.563 63.306 107.211 63.2806C107.122 63.1278 107.16 62.6567 107.261 62.5803L107.211 62.5931Z"></path>
<path fill="#231815" d="M129.17 70.5503C129.17 72.5365 128.287 73.9879 126.876 74.8282C126.069 75.312 124.632 75.7321 123.422 75.7321C119.589 75.7321 117.875 73.4404 117.875 70.5885C117.875 68.7679 118.783 67.3419 120.144 66.5016C121.001 65.9796 122.312 65.5468 123.699 65.5468C127.229 65.5468 129.17 67.7493 129.17 70.5376V70.5503ZM122.438 66.7308C121.783 67.1891 121.455 68.0676 121.455 69.8883C121.455 73.1858 122.514 74.8027 123.875 74.8027C124.178 74.8027 124.481 74.7136 124.657 74.5354C125.262 74.0261 125.539 73.033 125.539 71.2124C125.539 68.3732 124.682 66.5016 123.119 66.5016C122.892 66.5016 122.64 66.5908 122.438 66.7181V66.7308Z"></path>
<path fill="#231815" d="M129.51 66.0815C130.645 66.0306 132.914 65.9924 134.2 65.6996C134.099 66.4126 134.048 67.6603 134.048 70.0284C134.048 71.4416 134.023 72.2564 134.174 72.7275C134.326 73.2495 134.805 73.7079 135.738 73.7079C136.242 73.7079 136.696 73.5169 136.948 73.3259C137.074 73.2113 137.124 73.0585 137.124 72.9694C137.175 72.5875 137.2 70.9196 137.124 67.9022C137.124 67.6348 137.049 67.2529 136.696 67.1637C136.317 67.0491 135.889 66.9728 135.385 66.8964C135.334 66.6545 135.359 66.2089 135.46 66.0815C137.628 66.0815 139.721 65.8396 140.503 65.725C140.477 65.9415 140.452 67.1765 140.452 68.2077V73.0076C140.477 73.4659 140.578 73.7715 140.906 73.8224C141.234 73.8479 141.536 73.8479 141.94 73.8479C141.94 74.0134 141.914 74.5481 141.814 74.6882C140.805 75.1211 137.956 75.7577 137.427 75.7577C137.376 75.7322 137.301 75.6431 137.275 75.5921C137.2 75.3248 137.149 74.5863 137.149 74.2808C137.149 74.2298 137.074 74.1789 137.023 74.2299C135.889 75.1211 134.754 75.694 133.67 75.694C131.678 75.694 130.821 74.4208 130.796 72.702C130.771 71.5307 130.796 69.1881 130.771 67.9913C130.746 67.4948 130.695 67.2274 130.292 67.1128C130.09 67.0619 129.712 66.9728 129.409 66.9218C129.359 66.7309 129.409 66.2089 129.51 66.0815Z"></path>
<path fill="#231815" d="M146.314 67.3293C146.314 67.3293 146.213 67.4184 146.213 67.4693C146.213 68.3733 146.188 70.0793 146.188 71.1997C146.188 72.0655 146.188 72.5111 146.289 72.9949C146.364 73.4914 146.818 73.9243 147.574 73.9243C148.079 73.9243 148.482 73.8479 148.936 73.5933C148.986 73.7079 148.986 74.2171 148.911 74.4336C148.205 75.3248 147.02 75.7195 145.885 75.7195C144.751 75.7195 143.767 75.363 143.288 74.5736C142.91 73.9243 142.91 73.2877 142.91 71.9254C142.91 70.7287 142.935 68.577 142.935 67.5712C142.935 67.4821 142.885 67.3547 142.784 67.3293C142.431 67.2784 141.952 67.2784 141.574 67.2274C141.574 67.0619 141.7 66.4635 141.801 66.2471C142.129 66.1707 142.633 66.0561 142.809 65.9797C142.86 65.9797 142.91 65.8906 142.935 65.7887V63.7517C143.742 63.5352 145.331 62.7968 145.734 62.4912C145.835 62.4658 146.188 62.4148 146.314 62.4403C146.238 62.9878 146.213 64.1336 146.213 65.6869C146.213 65.7887 146.263 65.8779 146.314 65.8779C146.843 65.8779 148.381 65.8015 149.062 65.7887C148.986 66.1962 148.835 66.9346 148.81 67.342C148.053 67.3165 147.171 67.3165 146.314 67.3165V67.3293Z"></path>
<path fill="#231815" d="M148.986 62.9622C150.953 62.8603 153.222 62.3383 153.928 62.0964C154.029 62.1219 154.155 62.402 154.129 62.5548C153.902 62.8858 153.802 63.1532 153.802 64.821V66.7181C153.802 66.7944 153.852 66.8326 153.903 66.7944C154.936 66.1197 156.045 65.5467 157.13 65.5467C159.222 65.5467 160.407 66.9345 160.407 69.4936C160.407 70.754 160.382 72.9821 160.432 73.9115C160.432 73.9624 160.458 74.2425 160.609 74.3189C160.886 74.4844 161.365 74.6245 161.819 74.7009C161.92 74.79 161.844 75.4138 161.693 75.5157C161.29 75.5157 160.432 75.4393 158.718 75.4393C157.684 75.4393 156.676 75.4648 156.02 75.5157C155.894 75.4011 155.894 74.8027 156.02 74.7009C156.298 74.6499 156.55 74.5863 156.676 74.5353C157.029 74.4208 157.104 74.2043 157.13 73.5295C157.18 72.0272 157.23 69.4936 157.029 68.7042C156.852 67.8894 156.096 67.3419 155.138 67.3419C154.709 67.3419 154.331 67.4183 153.978 67.5838C153.903 67.6093 153.827 67.7239 153.827 67.8766C153.827 69.7864 153.802 72.6383 153.852 73.3768C153.903 74.0261 153.877 74.3571 154.356 74.5226C154.583 74.599 154.76 74.6372 155.138 74.7136C155.289 74.8282 155.214 75.3756 155.113 75.5284C154.356 75.5284 153.65 75.452 152.087 75.452C150.524 75.452 149.768 75.5284 149.213 75.5284C149.062 75.3629 149.087 74.8154 149.213 74.7136C149.591 74.6372 149.843 74.5735 150.07 74.4971C150.474 74.3826 150.524 74.0006 150.549 73.1858C150.6 72.2564 150.6 70.7286 150.6 69.2007C150.6 64.4009 150.575 65.2794 150.499 64.5791C150.449 64.2863 150.373 64.0699 150.045 63.9553C149.793 63.8534 149.415 63.8152 148.986 63.7388C148.86 63.637 148.885 63.0513 148.986 62.9749V62.9622Z"></path>
<path fill="#231815" d="M67.4643 74.8155C67.4013 75.0828 67.5526 75.1338 67.5526 75.3502C66.3424 76.1523 63.9599 75.6303 63.5943 74.459C61.5144 76.5852 56.0182 75.9486 56.7242 72.3201C57.1401 70.1557 60.1529 69.8119 63.0649 69.8246C63.1027 68.7806 63.3422 67.6093 62.7119 66.9727C61.9304 66.1961 60.1151 66.6417 59.447 67.3292C59.4722 67.7621 59.2957 68.004 59.3588 68.4878H57.6822V66.5271C60.2916 65.5722 65.5482 65.0884 66.1407 68.0422C66.4054 69.3536 65.9894 71.989 66.1407 73.4659C66.2289 74.3317 66.4559 74.7391 67.4643 74.8027V74.8155ZM60.0647 73.8351C60.7328 74.5863 62.3842 74.4717 63.1531 73.746C63.1027 72.7275 63.2666 71.4925 63.0649 70.6267C60.8084 70.1429 58.6402 72.2309 60.0647 73.8224V73.8351Z" clip-rule="evenodd" fill-rule="evenodd"></path>
<path fill="#231815" d="M93.8483 70.9196H86.8017C86.5243 74.6882 91.0624 74.981 93.8483 73.8606V75.1974C89.5624 76.4451 84.2679 75.6558 83.7132 71.6453C82.7426 64.5537 94.3147 63.497 93.8483 70.9323V70.9196ZM89.9783 66.8327C88.1505 65.8014 86.663 67.9021 86.8899 70.0411H90.8481C90.7725 68.6406 90.7977 67.3037 89.9657 66.8327H89.9783Z" clip-rule="evenodd" fill-rule="evenodd"></path>
<path fill="#231815" d="M165.739 41.0126C165.739 41.0126 85.9949 56.4435 85.4781 56.5454C84.9739 56.3926 34.374 41.0508 34.374 41.0508C34.0463 40.949 33.7059 40.9999 33.4286 41.2163C33.1639 41.4201 33 41.7383 33 42.0821V96.9304C33 97.2742 33.1639 97.5925 33.4286 97.7962C33.6933 97.9999 34.0463 98.0636 34.374 97.9617C34.374 97.9617 84.9865 82.6072 85.4781 82.4544C85.9949 82.5563 165.739 97.9872 165.739 97.9872C166.055 98.0508 166.37 97.9617 166.622 97.758C166.861 97.5543 167.013 97.2487 167.013 96.9304V42.0821C167.013 41.7638 166.874 41.4582 166.622 41.2545C166.382 41.0508 166.055 40.9617 165.739 41.0254V41.0126ZM85.6167 58.7098C85.6167 58.7098 162.411 43.8518 164.87 43.3807V95.6191C162.411 95.148 85.6167 80.2901 85.6167 80.2901C85.4529 80.2646 85.2764 80.2646 85.1125 80.3155C85.1125 80.3155 37.7398 94.6897 35.1304 95.479V43.5208C37.7272 44.3102 85.1125 58.6843 85.1125 58.6843C85.2764 58.7352 85.4529 58.7479 85.6167 58.7098Z"></path>
</g>
<defs>
<clipPath id="clip0_5_1813">
<rect transform="translate(33 41)" fill="white" height="57" width="134"></rect>
</clipPath>
</defs>
</svg>
