<svg xmlns="http://www.w3.org/2000/svg" fill="none" viewBox="0 0 274 88" height="88" width="274">
<g clip-path="url(#clip0_184_17)">
<path fill="#231815" d="M40.6699 29.8795C40.1858 29.4195 39.6636 29.2949 39.1415 29.2949C38.6194 29.2949 38.0972 29.4291 37.6131 29.8795C37.1004 30.3682 36.939 31.0103 36.939 31.9686V38.7629C36.939 39.7691 36.8536 41.5898 35.1827 41.5898C33.5119 41.5898 33.4264 39.7691 33.4264 38.7629V31.9686C33.4264 31.0103 33.2746 30.3682 32.7524 29.8795C32.2682 29.4195 31.7461 29.2949 31.224 29.2949C30.7018 29.2949 30.1797 29.4291 29.6955 29.8795C29.1829 30.3682 29.0215 31.0103 29.0215 31.9686V55.945C29.0215 56.9033 29.1734 57.5454 29.6955 58.0341C30.1797 58.4941 30.7018 58.6187 31.224 58.6187C31.7461 58.6187 32.2682 58.4845 32.7524 58.0341C33.2651 57.5454 33.4264 56.9033 33.4264 55.945V49.1507C33.4264 48.1445 33.5119 46.3238 35.1827 46.3238C36.8536 46.3238 36.939 48.1445 36.939 49.1507V55.945C36.939 56.9033 37.0909 57.5454 37.6131 58.0341C38.0972 58.4941 38.6194 58.6187 39.1415 58.6187C39.6636 58.6187 40.1858 58.4845 40.6699 58.0341C41.1826 57.5454 41.344 56.9033 41.344 55.945V31.9686C41.344 31.0103 41.1921 30.3682 40.6699 29.8795Z"></path>
<path fill="#231815" d="M58.4227 31.9686C58.4227 31.0103 58.2708 30.3682 57.7487 29.8795C57.2645 29.4195 56.7424 29.2949 56.2202 29.2949C55.6981 29.2949 55.176 29.4291 54.6918 29.8795C54.1791 30.3682 54.0178 31.0103 54.0178 31.9686V51.7573C54.0178 52.5718 53.9608 53.0989 53.676 53.5589C53.4007 54.0093 52.869 54.268 52.271 54.268C51.6729 54.268 51.1412 53.9997 50.8659 53.5589C50.5811 53.0989 50.5242 52.5718 50.5242 51.7573V31.9686C50.5242 31.0103 50.3628 30.3682 49.8501 29.8795C49.366 29.4195 48.8438 29.2949 48.3217 29.2949C47.7995 29.2949 47.2774 29.4291 46.7932 29.8795C46.2806 30.3682 46.1192 31.0103 46.1192 31.9686V51.7573C46.1192 53.0702 46.2426 54.4884 47.1445 55.9259C48.2362 57.6604 50.1444 58.7049 52.2615 58.7049C54.3785 58.7049 56.2962 57.67 57.3784 55.9259C58.2803 54.4884 58.4037 53.0702 58.4037 51.7573V31.9686H58.4227Z"></path>
<path fill="#231815" d="M80.6658 29.8795C80.1817 29.4195 79.6595 29.2949 79.1374 29.2949C78.7577 29.2949 78.3779 29.3716 78.0077 29.5824C77.4381 29.9178 77.1438 30.5311 77.0583 30.7324C76.9349 31.0103 76.7925 31.3936 76.6406 31.9111C76.2419 33.3198 73.7356 42.0594 73.5078 42.826C73.3084 43.4872 72.9761 44.388 72.1692 44.388C71.3623 44.388 71.0205 43.4777 70.8306 42.826C70.6028 42.0594 68.087 33.3198 67.6978 31.9111C67.5554 31.3936 67.4035 31.0103 67.2801 30.7324C67.1851 30.5311 66.8909 29.9082 66.3307 29.5824C65.9605 29.362 65.5808 29.2949 65.201 29.2949C64.6884 29.2949 64.1567 29.4291 63.6726 29.8795C63.1599 30.3682 62.9985 31.0103 62.9985 31.9686V55.945C62.9985 56.9033 63.1504 57.5454 63.6726 58.0341C64.1567 58.4941 64.6789 58.6187 65.201 58.6187C65.7232 58.6187 66.2453 58.4845 66.7295 58.0341C67.2421 57.5454 67.4035 56.9033 67.4035 55.945V52.9839C67.4035 52.246 67.5554 51.6615 68.1155 51.6136C68.6187 51.5656 68.894 51.9202 69.1503 52.6964C69.3971 53.4247 70.2041 55.8588 70.4604 56.5871C70.7642 57.4783 71.2673 58.2545 72.1787 58.2545C73.0901 58.2545 73.5932 57.4783 73.897 56.5871C74.1438 55.8492 74.9603 53.4247 75.2071 52.6964C75.4634 51.9202 75.7482 51.5656 76.2419 51.6136C76.802 51.6615 76.9539 52.246 76.9539 52.9839V55.945C76.9539 56.9033 77.1058 57.5454 77.6279 58.0341C78.1121 58.4941 78.6342 58.6187 79.1564 58.6187C79.6785 58.6187 80.2007 58.4845 80.6848 58.0341C81.1975 57.5454 81.3589 56.9033 81.3589 55.945V31.9686C81.3589 31.0103 81.207 30.3682 80.6848 29.8795H80.6658Z"></path>
<path fill="#231815" d="M99.8046 55.6L96.1117 31.9206C95.9598 30.9719 95.7509 30.2436 95.1813 29.822C94.6117 29.4003 93.7668 29.2949 93.0073 29.2949C92.2479 29.2949 91.3934 29.4003 90.8333 29.822C90.2637 30.2436 90.0454 30.9719 89.903 31.9206L86.21 55.6C86.0581 56.5488 86.0581 57.2675 86.4948 57.8233C86.903 58.3503 87.4537 58.5803 87.9663 58.6187C88.384 58.6474 89.0201 58.6187 89.5612 58.2545C90.1403 57.852 90.3966 57.2387 90.5485 56.29L90.8049 54.6609C90.9567 53.7026 91.3934 52.6293 93.0168 52.6293C94.6402 52.6293 95.0769 53.7026 95.2288 54.6609L95.4851 56.29C95.637 57.2387 95.8839 57.852 96.4724 58.2545C97.0231 58.6283 97.6496 58.6474 98.0673 58.6187C98.58 58.5899 99.1306 58.3503 99.5388 57.8233C99.9755 57.2579 99.966 56.5392 99.8236 55.6H99.8046ZM94.1845 47.4354C93.9282 47.79 93.4915 48.02 92.9978 48.02C92.5042 48.02 92.0675 47.79 91.8112 47.4354C91.5169 47.0233 91.4314 46.4484 91.4314 45.95C91.4314 45.2888 91.5359 44.1197 91.8966 43.0368C92.1339 42.3277 92.4567 41.6377 92.9978 41.6377C93.539 41.6377 93.8617 42.3277 94.0991 43.0368C94.4598 44.1197 94.5643 45.2888 94.5643 45.95C94.5643 46.4484 94.4883 47.0233 94.1845 47.4354Z"></path>
<path fill="#231815" d="M144.452 29.8795C143.968 29.4195 143.446 29.2949 142.924 29.2949C142.544 29.2949 142.164 29.3716 141.794 29.5824C141.225 29.9178 140.93 30.5311 140.845 30.7324C140.721 31.0103 140.579 31.3936 140.427 31.9111C140.028 33.3198 137.522 42.0594 137.294 42.826C137.095 43.4872 136.763 44.388 135.956 44.388C135.149 44.388 134.807 43.4777 134.617 42.826C134.389 42.0594 131.874 33.3198 131.484 31.9111C131.342 31.3936 131.19 31.0103 131.067 30.7324C130.972 30.5311 130.677 29.9082 130.117 29.5824C129.747 29.362 129.367 29.2949 128.988 29.2949C128.475 29.2949 127.943 29.4291 127.459 29.8795C126.946 30.3682 126.785 31.0103 126.785 31.9686V55.945C126.785 56.9033 126.937 57.5454 127.459 58.0341C127.943 58.4941 128.465 58.6187 128.988 58.6187C129.51 58.6187 130.032 58.4845 130.516 58.0341C131.029 57.5454 131.19 56.9033 131.19 55.945V52.9839C131.19 52.246 131.342 51.6615 131.902 51.6136C132.405 51.5656 132.68 51.9202 132.937 52.6964C133.184 53.4247 133.991 55.8588 134.247 56.5871C134.551 57.4783 135.054 58.2545 135.965 58.2545C136.877 58.2545 137.38 57.4783 137.684 56.5871C137.93 55.8492 138.747 53.4247 138.994 52.6964C139.25 51.9202 139.535 51.5656 140.028 51.6136C140.589 51.6615 140.74 52.246 140.74 52.9839V55.945C140.74 56.9033 140.892 57.5454 141.414 58.0341C141.899 58.4941 142.421 58.6187 142.943 58.6187C143.465 58.6187 143.987 58.4845 144.471 58.0341C144.984 57.5454 145.145 56.9033 145.145 55.945V31.9686C145.145 31.0103 144.993 30.3682 144.471 29.8795H144.452Z"></path>
<path fill="#231815" d="M163.62 55.6L159.927 31.9206C159.775 30.9719 159.566 30.2436 158.996 29.822C158.427 29.4003 157.582 29.2949 156.822 29.2949C156.063 29.2949 155.208 29.4003 154.648 29.822C154.079 30.2436 153.86 30.9719 153.718 31.9206L150.025 55.6C149.873 56.5488 149.873 57.2675 150.31 57.8233C150.718 58.3503 151.269 58.5803 151.781 58.6187C152.199 58.6474 152.835 58.6187 153.376 58.2545C153.955 57.852 154.212 57.2387 154.364 56.29L154.62 54.6609C154.772 53.7026 155.208 52.6293 156.832 52.6293C158.455 52.6293 158.892 53.7026 159.044 54.6609L159.3 56.29C159.452 57.2387 159.699 57.852 160.287 58.2545C160.838 58.6283 161.465 58.6474 161.882 58.6187C162.395 58.5899 162.946 58.3503 163.354 57.8233C163.791 57.2579 163.781 56.5392 163.639 55.6H163.62ZM158 47.4354C157.743 47.79 157.306 48.02 156.813 48.02C156.319 48.02 155.882 47.79 155.626 47.4354C155.332 47.0233 155.246 46.4484 155.246 45.95C155.246 45.2888 155.351 44.1197 155.712 43.0368C155.949 42.3277 156.272 41.6377 156.813 41.6377C157.354 41.6377 157.677 42.3277 157.914 43.0368C158.275 44.1197 158.379 45.2888 158.379 45.95C158.379 46.4484 158.303 47.0233 158 47.4354Z"></path>
<path fill="#231815" d="M116.285 29.8795C115.801 29.4195 115.279 29.2949 114.757 29.2949C114.235 29.2949 113.713 29.4291 113.228 29.8795C112.716 30.3682 112.554 31.0103 112.554 31.9686V36.2809C112.554 36.7025 112.488 37.5746 111.7 37.5746C110.912 37.5746 110.665 36.3096 110.418 35.3801C110.171 34.4505 109.668 32.4669 109.45 31.5948C109.317 31.0773 109.07 30.3586 108.501 29.8699C108.159 29.5728 107.608 29.2949 106.849 29.2949C106.336 29.2949 105.805 29.4291 105.32 29.8795C104.808 30.3682 104.646 31.0103 104.646 31.9686V55.9354C104.646 56.8937 104.798 57.5358 105.32 58.0245C105.805 58.4845 106.327 58.6091 106.849 58.6091C107.371 58.6091 107.893 58.4749 108.377 58.0245C108.89 57.5358 109.051 56.8937 109.051 55.9354V51.6231C109.051 51.2015 109.118 50.3294 109.906 50.3294C110.694 50.3294 110.94 51.5944 111.187 52.5239C111.434 53.4535 111.937 55.4371 112.156 56.3092C112.289 56.8267 112.535 57.5454 113.105 58.0341C113.447 58.3312 113.997 58.6091 114.757 58.6091C115.269 58.6091 115.801 58.4749 116.285 58.0245C116.798 57.5358 116.959 56.8937 116.959 55.9354V31.9686C116.959 31.0103 116.807 30.3682 116.285 29.8795Z"></path>
<path fill="#231815" d="M177.395 30.4258C176.274 29.7742 175.287 29.4484 173.578 29.3334C172.933 29.2855 172.107 29.2663 171.433 29.3238C170.882 29.3717 169.952 29.4388 169.259 30.1192C168.67 30.7037 168.461 31.4895 168.461 32.4478V55.4564C168.461 56.4147 168.67 57.2005 169.259 57.7851C169.942 58.4655 170.882 58.5325 171.433 58.5805C172.107 58.638 172.933 58.6188 173.578 58.5709C175.287 58.4559 176.284 58.1301 177.395 57.4784C178.809 56.6543 180.499 54.8719 180.499 51.077V36.8176C180.499 33.0228 178.809 31.2404 177.395 30.4162V30.4258ZM176.113 51.077C176.113 52.4091 175.838 53.0511 175.553 53.3482C175.116 53.8177 174.642 53.9902 174.034 53.904C173.218 53.7986 172.857 53.1949 172.857 52.4282V35.4569C172.857 34.6998 173.218 34.0961 174.034 33.9811C174.642 33.9044 175.116 34.0673 175.553 34.5369C175.828 34.834 176.113 35.476 176.113 36.8081V51.0674V51.077Z"></path>
<path fill="#231815" d="M193.496 54.1914H191.825C190.068 54.1914 189.66 53.6356 189.66 52.0065V48.3458C189.66 46.7167 190.068 46.1609 191.825 46.1609H192.651C193.6 46.1609 194.236 46.0076 194.72 45.4805C195.176 44.9918 195.299 44.4648 195.299 43.9377C195.299 43.4106 195.166 42.8836 194.72 42.3948C194.236 41.8774 193.6 41.7145 192.651 41.7145H191.825C190.068 41.7145 189.66 41.1586 189.66 39.5295V35.8785C189.66 34.2494 190.068 33.6935 191.825 33.6935H193.496C194.445 33.6935 195.081 33.5402 195.565 33.0132C196.021 32.5244 196.144 31.9974 196.144 31.4703C196.144 30.9432 196.011 30.4162 195.565 29.9275C195.081 29.41 194.445 29.2471 193.496 29.2471H187.467C186.955 29.2471 186.423 29.3812 185.939 29.8316C185.426 30.3204 185.265 30.9624 185.265 31.9207V55.8972C185.265 56.8555 185.417 57.4975 185.939 57.9863C186.423 58.4462 186.945 58.5708 187.467 58.5708H193.496C194.445 58.5708 195.081 58.4175 195.565 57.8904C196.021 57.4017 196.144 56.8746 196.144 56.3476C196.144 55.8205 196.011 55.2935 195.565 54.8047C195.081 54.2873 194.445 54.1243 193.496 54.1243V54.1914Z"></path>
<path fill="#231815" d="M212.995 37.8143C212.644 37.4789 212.264 37.3831 211.884 37.3831C211.505 37.3831 211.125 37.4789 210.774 37.8143C210.403 38.1689 210.289 38.6384 210.289 39.338V56.7597C210.289 57.4593 210.403 57.9288 210.774 58.2834C211.125 58.6188 211.505 58.7146 211.884 58.7146C212.264 58.7146 212.644 58.6188 212.995 58.2834C213.365 57.9288 213.479 57.4593 213.479 56.7597V39.338C213.479 38.6384 213.365 38.1689 212.995 37.8143Z"></path>
<path fill="#231815" d="M225.441 43.4586C225.118 43.1519 224.653 42.8165 223.989 42.5961C223.476 42.4236 222.83 42.3278 222.08 42.4715C221.501 42.5865 220.989 42.8261 220.419 42.9315C219.944 43.0178 219.46 42.9315 219.251 42.874C218.995 42.7974 218.691 42.7495 218.52 42.7495C218.15 42.7495 217.761 42.8453 217.41 43.1807C217.039 43.5353 216.925 44.0048 216.925 44.7044V56.7501C216.925 57.4497 217.039 57.9192 217.41 58.2738C217.761 58.6092 218.141 58.705 218.52 58.705C218.9 58.705 219.28 58.6092 219.631 58.2738C220.001 57.9192 220.115 57.4497 220.115 56.7501V47.5984C220.115 47.0426 220.163 46.5251 220.647 45.9693C220.979 45.586 221.72 45.3848 222.432 45.6052C223.258 45.8639 223.466 46.621 223.466 47.2247V56.7501C223.466 57.4497 223.58 57.9192 223.951 58.2738C224.302 58.6092 224.682 58.705 225.061 58.705C225.441 58.705 225.821 58.6092 226.172 58.2738C226.542 57.9192 226.656 57.4497 226.656 56.7501V46.5155C226.656 45.2889 226.229 44.2061 225.451 43.4586H225.441Z"></path>
<path fill="#231815" d="M243.27 58.5996C244.25 58.5996 245.045 57.7973 245.045 56.8076C245.045 55.8179 244.25 55.0156 243.27 55.0156C242.289 55.0156 241.494 55.8179 241.494 56.8076C241.494 57.7973 242.289 58.5996 243.27 58.5996Z"></path>
<path fill="black" d="M237.441 52.5719C237.004 52.5719 236.624 52.7253 236.377 53.0223C236.197 53.2427 236.14 53.4823 236.074 53.8177C235.979 54.2777 235.855 54.8239 235.618 55.1306C235.419 55.3893 235.143 55.6193 234.678 55.6385C234.203 55.6672 233.672 55.5139 233.359 54.546C233.131 53.8369 233.121 52.6965 233.121 51.949V49.7737C233.121 49.0263 233.121 47.8859 233.359 47.1767C233.672 46.2089 234.203 46.0651 234.678 46.0843C235.134 46.113 235.409 46.3335 235.618 46.5922C235.855 46.8988 235.979 47.4451 236.074 47.9051C236.15 48.25 236.207 48.48 236.377 48.7004C236.615 49.0071 237.004 49.1508 237.441 49.1508C237.963 49.1508 238.4 48.9783 238.703 48.6334C239.007 48.2884 239.112 47.8284 239.026 47.0809C238.931 46.2568 238.646 45.5381 238.115 44.8002C237.488 43.9377 236.264 43.0273 234.688 43.0273C232.628 43.0273 231.09 44.2156 230.454 46.2855C230.207 47.1001 230.083 48.0775 230.064 49.3521C230.064 49.7546 230.064 51.9682 230.064 52.3707C230.083 53.6452 230.207 54.6227 230.454 55.4372C231.09 57.5071 232.628 58.6954 234.688 58.6954C236.264 58.6954 237.488 57.7755 238.115 56.9226C238.646 56.1943 238.941 55.466 239.026 54.6418C239.112 53.8848 239.007 53.4344 238.703 53.0894C238.4 52.7444 237.972 52.5624 237.441 52.5719Z"></path>
</g>
<defs>
<clipPath id="clip0_184_17">
<rect fill="white" height="88" width="274"></rect>
</clipPath>
</defs>
</svg>
