<svg xmlns="http://www.w3.org/2000/svg" fill="none" viewBox="0 0 200 139" height="139" width="200">
<g clip-path="url(#clip0_5_1878)">
<path fill="#1A0B08" d="M84.8832 22.1736C85.103 22.5681 85.7739 23.5881 86.2136 23.8079C86.6476 24.0277 87.1268 24.5518 87.279 24.7491C87.4312 24.9463 87.9555 25.3577 88.4121 25.5775C88.8687 25.7973 89.331 26.6877 89.4324 26.7497C89.5452 26.8173 89.7594 26.5581 89.9792 26.4679C90.1991 26.3834 90.7459 26.0734 91.5464 26.5975C92.3525 27.116 92.2229 28.8631 92.1552 29.2576C92.0876 29.6521 92.1778 30.1705 92.3074 30.148C92.4371 30.1311 92.6795 29.8099 93.0064 29.421C93.3334 29.0321 93.463 28.4404 93.6603 28.4742C93.8576 28.5024 94.055 29.7817 93.7562 31.0891C93.463 32.3966 92.189 33.0165 92.189 33.0165C92.0876 33.3096 92.578 34.1606 93.3334 36.381C94.0888 38.6071 93.4969 41.284 93.3334 41.9095C93.1699 42.5295 93.1079 43.3185 93.4687 44.0004C93.8295 44.6823 94.6469 46.418 95.1373 47.3028C95.6277 48.1876 96.0223 48.7737 98.0179 49.5233C100.008 50.2784 102.922 50.5095 104.427 50.9604C105.933 51.4168 107.342 51.4845 108.227 51.5521C109.106 51.6141 111.108 52.2058 112.449 52.3693C113.785 52.5327 116.012 52.0086 116.142 51.9748C116.277 51.9466 116.435 51.9748 116.604 52.0424C116.767 52.11 117.585 51.7155 117.585 51.7155C116.671 51.6197 113.171 50.115 112.483 49.822C111.795 49.5289 111.699 49.1006 111.666 48.8076C111.632 48.5145 111.959 48.2553 112.584 48.12C113.205 47.9904 113.137 47.8608 113.396 47.4325C113.661 47.0042 114.411 46.7111 114.772 46.7111C115.133 46.7111 115.527 46.5139 115.747 46.0236C115.978 45.5333 116.762 45.2064 116.925 45.1782C117.089 45.1444 117.714 44.7837 118.132 44.6823C118.56 44.5865 119.276 45.0148 119.569 45.0148C119.862 45.0148 120.324 44.8513 120.618 44.8175C120.911 44.7837 121.238 44.919 121.373 44.9471C121.503 44.981 121.57 44.8457 121.536 44.6541C121.503 44.4568 121.407 43.4762 121.407 43.4762C120.719 42.8845 119.896 43.1494 119.738 43.2508C119.569 43.3466 119.31 43.7355 118.464 43.8031C117.613 43.8707 116.829 43.5101 116.57 43.2508C116.305 42.9859 116.469 39.9765 116.536 39.7173C116.598 39.4524 117.021 39.4524 117.545 39.6158C118.07 39.7793 118.723 39.4524 119.513 39.2213C120.296 38.9903 121.503 39.1875 121.734 39.4862C121.959 39.7793 121.897 41.8363 121.999 42.3942C122.094 42.9521 122.094 44.6823 122.094 44.6823C123.042 43.9327 124.383 44.3272 124.648 44.3892C124.907 44.4568 125.037 44.5527 125.826 44.5865C126.61 44.6146 127.461 45.0091 127.619 45.1388C127.788 45.2684 128.143 45.5333 128.408 45.7587C128.667 45.9841 128.994 46.6378 129.124 46.8407C129.254 47.038 129.947 47.2014 129.947 47.2014C131.317 47.038 131.509 47.7537 131.283 48.2102C131.058 48.6723 130.663 49.095 129.581 49.9121C128.504 50.7293 127.354 50.9265 127.354 50.9265C127.191 51.445 126.373 52.2678 126.046 52.3016C125.719 52.3298 125.426 52.6229 125.229 52.8258C125.031 53.023 124.214 53.4175 123.786 53.4513C123.363 53.4795 122.709 53.8458 122.089 54.3981C121.469 54.956 120.685 55.1138 119.535 55.2829C118.391 55.4463 117.049 56.4269 115.251 57.802C113.453 59.1771 108.419 59.8308 107.404 59.859C106.389 59.8928 106.716 60.0281 106.846 60.1521C106.975 60.2817 107.404 60.8114 107.827 61.2285C108.249 61.6568 112.573 64.8578 114.202 65.675C115.837 66.4978 116.525 68.3857 116.525 68.3857C116.948 68.8816 119.761 71.9869 120.443 72.7364C121.131 73.486 121.491 74.4722 120.899 75.6782C120.313 76.8842 117.664 77.8648 116.553 78.1973C115.437 78.5242 112.596 79.5668 112.596 79.5668C112.596 79.5668 114.462 80.7108 115.11 81.5618C115.764 82.4128 116.35 82.4748 117.596 83.9513C118.842 85.4222 117.991 86.1379 116.423 87.5807C114.856 89.0234 112.139 89.9363 112.139 89.9363C112.139 89.9363 112.37 90.5901 112.635 90.8493C112.895 91.1085 113.582 92.2188 113.65 92.6809C113.712 93.1374 114.665 93.6897 115.381 93.8249C116.102 93.9545 116.784 93.2388 117.962 92.3878C119.135 91.5369 119.89 89.6715 120.02 89.1868C120.15 88.6909 120.116 87.22 121.232 87.4172C122.343 87.6145 123.684 90.9846 123.819 92.1568C123.949 93.3346 123.228 95.2958 120.02 97.8826C116.818 100.464 115.674 100.886 114.169 100.92C112.663 100.948 111.096 98.8632 110.6 98.3334C110.11 97.8093 109.394 96.7667 109.625 96.113C109.85 95.4593 109.755 95.0028 109.659 94.7773C109.557 94.5463 108.875 93.9545 108.706 93.4699C108.543 92.9796 107.235 91.7059 106.778 91.4749C106.322 91.2438 104.162 88.1442 103.249 86.6057C102.336 85.0728 101.947 84.9714 101.947 84.9714C101.519 85.8223 100.307 86.2845 99.1285 87.7215C97.9503 89.1586 95.4022 91.5425 93.6998 91.2494C92.003 90.9564 87.978 85.8223 87.3579 84.7121C86.7378 83.6019 85.0692 84.9094 84.4153 85.1686C83.7614 85.4335 83.271 85.1686 83.271 85.1686C82.4817 86.1492 83.1751 87.1974 83.6656 87.5919C84.156 87.9864 85.9486 90.731 86.7378 91.5143C87.5214 92.2977 89.5508 92.1004 90.2047 91.9032C90.8586 91.7116 91.0221 91.1874 91.4111 91.1874C91.8001 91.1874 92.5611 91.7736 91.8395 93.87C91.118 95.9608 89.3197 95.8312 88.6658 95.7298C88.0119 95.634 86.3432 95.4987 84.6746 95.4311C83.006 95.3691 81.8278 94.1236 81.2754 93.0134C80.7229 91.9032 80.0295 90.8888 79.3136 89.8743C78.5921 88.8599 78.034 87.8793 77.4477 86.9325C76.8614 85.9858 76.9234 84.5487 77.645 83.6639C78.3666 82.7791 79.2122 82.6495 79.7364 82.5199C80.2607 82.3902 81.0104 82.1592 81.8616 81.3758C82.7129 80.5925 83.7952 80.0007 84.0545 79.9049C84.3195 79.8091 84.6126 79.8091 84.8381 79.6401C85.0636 79.4766 85.9486 78.4622 89.4493 76.6306C92.9501 74.799 94.816 72.8717 94.816 72.8717C92.33 67.8672 90.5937 65.9398 90.5937 65.9398C90.3344 66.1371 89.1224 66.5316 88.3726 65.9398C87.6172 65.3537 88.2712 63.9167 88.6038 63.3249C88.9307 62.7388 88.1077 62.6036 87.6229 62.5416C87.1324 62.4739 86.9351 62.8008 85.8246 63.0319C84.7141 63.2629 83.1075 63.1277 81.281 62.8684C79.4489 62.6092 78.406 61.792 77.4252 61.1383C76.4443 60.4846 73.434 58.3261 73.5975 56.7876C73.761 55.2491 74.646 54.1727 75.6607 52.7018C76.6754 51.2309 78.8626 48.847 79.7477 47.3761C80.6327 45.9052 81.3825 45.0204 81.9688 44.6597C82.5607 44.3047 82.5268 43.9722 82.6227 43.5833C82.7241 43.1888 82.0702 42.1124 81.4163 40.9008C80.7624 39.6891 80.1705 39.0354 79.7139 38.8719C79.2516 38.7085 78.4399 38.5113 76.7712 36.1894C75.1026 33.8675 75.5592 32.8869 75.6607 32.6897C75.7565 32.4924 76.185 32.1655 75.4634 31.8049C74.7418 31.4442 74.6122 30.0071 75.0011 29.7479C75.3958 29.4886 75.469 29.2576 75.469 29.2576C70.2828 29.3421 70.5026 23.1091 70.9367 21.193C71.3708 19.2769 71.1058 17.4058 70.1926 16.1829C69.2794 14.9656 69.409 13.134 69.9784 11.9111C70.5421 10.6938 73.0281 7.4646 77.8254 8.07889C82.6227 8.68753 82.882 12.3056 82.6227 14.1766C82.4648 15.3263 82.4085 16.8197 82.1886 18.0145C82.0759 18.6175 82.1886 19.0627 82.1886 19.0627C82.9947 19.6263 84.6746 21.7847 84.8945 22.1792M86.6138 58.0162C87.2452 57.6329 85.9825 53.936 85.6837 53.8233C85.5202 53.7669 84.855 54.2347 84.1955 54.7306C83.5359 55.2265 82.5212 55.6886 82.2788 55.8295C82.0308 55.9648 82.0589 56.5115 82.3915 56.7932C82.7185 57.0637 83.2935 58.0218 83.9531 58.2698C83.9531 58.2698 85.8866 58.467 86.6138 58.0218"></path>
<path fill="#D6B569" d="M86.3432 26.1523C85.7795 26.034 85.6893 25.7071 85.3623 25.662C85.1369 25.6338 83.3386 25.5268 82.1886 26.0565C81.0442 26.575 80.193 27.9839 79.3756 28.3784C78.5582 28.7729 77.9381 29.2294 77.6112 29.5562C77.2842 29.8831 76.3372 30.3734 75.9426 30.2438C75.9426 30.2438 75.7791 31.1906 77.1151 31.4216C78.4568 31.6527 79.0317 32.0528 79.1219 32.3797C79.2065 32.7122 78.8401 32.8193 78.5582 32.7122C78.2764 32.5995 77.4928 32.2106 76.9234 32.5149C76.3541 32.8249 76.8783 34.2169 77.0982 34.5832C77.3124 34.9552 78.468 36.9164 79.4094 37.463C80.3452 38.0097 80.8018 38.2689 81.6474 39.5538C82.4986 40.8387 83.3273 41.9546 83.8516 42.2984C84.3758 42.6478 86.2474 43.9383 87.279 44.2201C88.305 44.5019 90.791 43.696 91.8564 42.6083C92.9275 41.515 92.64 38.4211 92.5554 37.2489C92.4652 36.071 91.5069 33.3039 91.3096 33.1968C91.1123 33.0898 89.9792 32.8305 89.5226 33.2194C89.066 33.6082 87.668 35.4567 87.1888 35.6371C87.1888 35.6371 87.9273 36.2063 88.8912 35.7667C89.8496 35.3271 90.0018 35.1975 90.0694 35.1355C90.1371 35.0735 90.3513 35.158 90.3513 35.3722C90.3513 35.5863 90.3062 36.2232 90.2216 36.3753C90.1371 36.5275 89.8101 37.1361 88.5417 37.1812C87.279 37.2207 86.3601 35.8512 86.3601 35.8512C86.3601 35.8512 84.5506 36.133 83.5697 35.0397C82.5888 33.952 82.0195 33.0785 81.8504 32.994C81.6756 32.9038 81.4332 32.7122 81.5629 32.4473C81.6982 32.1824 82.4366 32.5769 82.7185 32.7291C83.0004 32.8812 83.5697 33.2532 83.9192 33.3377C84.2687 33.4223 85.3567 33.5575 86.0839 33.2701C86.7998 32.9883 87.8258 32.4642 89.0265 32.312C90.2216 32.1599 90.8361 31.5062 91.2476 29.9789C91.6591 28.4573 91.3096 27.4767 91.0278 27.2569C90.7459 27.0371 90.6782 26.9075 90.1596 27.4541C89.6354 28.0008 88.9814 28.7165 87.6511 28.8292C86.3207 28.9363 85.9092 28.3502 85.819 28.0233C85.7288 27.6965 86.0557 27.8035 86.1685 27.8261C86.2812 27.8486 86.6702 28.0233 87.4087 27.7134C88.1471 27.4091 88.1697 26.9075 88.04 26.5806C87.9047 26.2538 87.7582 26.0621 87.4256 26.1241C87.0986 26.1918 86.7322 26.2425 86.3319 26.1579"></path>
<path fill="#1A0B08" d="M82.2901 28.1304C81.8616 28.3671 81.1063 29.0434 80.9371 29.0885C80.706 29.1448 80.3621 29.0321 80.2212 28.9983C80.0916 28.9645 80.0239 28.7391 80.0465 28.6714C80.069 28.6094 80.3058 28.3897 80.4185 28.0797C80.5256 27.7754 81.0273 27.0766 81.8335 26.9244C82.6396 26.7722 82.882 26.868 83.3611 27.0991C83.829 27.3245 84.1278 27.8148 83.8347 27.9501C83.5754 28.0628 83.0116 27.7416 82.2957 28.1304"></path>
<path fill="#1A0B08" d="M82.6847 29.5224C82.3408 29.7197 81.9011 29.8324 81.6869 29.8324C81.4727 29.8324 81.2303 29.8324 81.281 30.1424C81.3317 30.4523 81.7433 30.7285 82.1773 30.813C82.617 30.8919 83.254 30.7961 83.5979 30.4185C83.9418 30.0409 84.0263 29.8099 84.0263 29.5844C84.0263 29.359 84.0263 29.0998 84.0432 29.049C84.0602 28.9814 83.9925 28.6546 83.6825 28.7391C83.3724 28.818 83.2259 29.2181 82.6847 29.5224Z"></path>
<path fill="#E60012" d="M88.243 45.2571C86.7153 45.2571 84.2744 44.9077 83.6205 45.043C82.9665 45.1726 82.0082 45.6516 81.5234 46.6097C81.0442 47.5677 78.733 50.8815 77.7747 51.9241C76.8163 52.9723 74.832 55.7394 74.8546 56.4608C74.8715 56.9849 74.8546 57.3117 75.3563 57.8753C75.858 58.4445 77.9269 59.797 78.4737 60.1859C79.0205 60.5748 79.5447 61.0594 79.7139 61.1665C79.8886 61.2792 81.0442 61.9329 81.5685 61.6061C82.0928 61.2792 82.8538 60.648 83.1187 59.8816C83.3781 59.1208 83.4006 59.0137 83.1864 58.8334C82.9665 58.6586 81.6192 57.5033 81.2923 56.7425C80.9653 55.9761 81.1401 55.6267 81.3148 55.452C81.4839 55.2773 84.1278 53.3161 84.8776 53.023C85.6329 52.7243 86.0219 52.4651 86.6138 53.4175C87.2001 54.3643 87.9217 57.013 88.181 57.4639C88.4403 57.926 88.6376 58.1514 89.0604 58.2191C89.4888 58.2867 91.7775 58.2191 92.6964 58.6756C93.6096 59.1377 94.7878 60.7044 93.8407 62.04C92.888 63.3813 92.1383 64.2323 91.7831 64.4633C91.4224 64.6888 91.3885 64.9198 91.49 65.1791C91.5858 65.4383 92.4822 66.8247 93.9197 68.938C95.3628 71.0514 96.975 73.9706 97.3865 74.6751C97.8037 75.3739 97.8713 75.5261 98.1983 75.6106C98.5253 75.6951 100.425 75.3063 100.921 75.0865C101.428 74.8667 102.449 74.3933 103.063 74.1904C103.672 73.9988 104.151 73.9706 104.546 73.3395C104.94 72.7083 105.679 70.8541 106.547 70.6118C107.421 70.3751 108.813 70.7245 109.991 71.0288C111.17 71.3332 112.957 71.9474 113.351 72.1222C113.74 72.2969 113.898 72.2067 113.983 72.0827C114.067 71.9475 115.443 69.5129 115.465 68.7464C115.488 67.98 114.789 67.3939 114.597 67.2642C114.4 67.1346 110.414 64.4746 108.864 63.3813C107.319 62.2936 106.051 61.313 105.792 60.4395C105.532 59.566 105.724 58.9348 106.491 58.8052C107.252 58.6756 112.376 58.3036 112.816 57.802C113.25 57.3005 112.709 54.5559 111.553 53.4457C111.553 53.4457 110.741 53.333 110.29 53.2259C109.828 53.1188 108.481 52.6173 107.302 52.6173C106.124 52.6173 104.969 52.4426 104.292 52.2848C103.616 52.1326 98.6211 51.1745 96.4 50.0869C94.1733 48.9992 93.1474 45.7249 92.888 45.0712C92.6287 44.4174 92.3243 44.1751 91.8846 44.13C91.4506 44.0906 91.2983 44.1131 91.101 44.2427C90.9037 44.3723 89.6185 45.2402 88.2655 45.2402"></path>
<path fill="#1A0B08" d="M92.5273 48.8358C92.1721 49.0894 91.9579 49.6811 92.1721 50.0812C92.3807 50.4814 92.8486 51.0562 93.1643 51.1182C93.4799 51.1858 94.2466 51.0618 94.427 50.5715C94.6243 50.0869 94.5172 49.4106 93.7956 48.9429C93.0741 48.4751 92.5273 48.8414 92.5273 48.8414"></path>
<path fill="#EB9219" d="M93.3616 49.3204C93.2432 49.3598 93.2545 49.743 93.5701 50.1037C93.8858 50.4587 94.1 49.9346 94.1 49.8276C94.1 49.7261 93.7393 49.1738 93.3616 49.3204Z"></path>
<path fill="#1A0B08" d="M99.2863 57.2948C98.7282 57.3286 98.4463 58.0838 98.4632 58.5008C98.4802 58.9179 99.2299 59.8139 99.6132 59.8646C99.9966 59.921 100.746 59.8308 100.837 59.1715C100.932 58.5121 100.374 57.2328 99.2863 57.2892"></path>
<path fill="#EB9219" d="M99.7091 57.9879C99.5851 58.0274 99.6527 58.2246 99.7091 58.3373C99.7654 58.4444 100.002 59.0869 100.273 59.0643C100.543 59.0474 100.566 58.7037 100.453 58.4782C100.346 58.2585 100.013 57.8978 99.7034 57.9879"></path>
<path fill="#1A0B08" d="M104.783 64.8522C104.219 64.8691 103.723 65.1959 103.706 65.3988C103.683 65.6017 103.356 65.9624 103.723 66.5316C104.089 67.0951 104.726 67.7151 105.38 67.3713C106.04 67.0219 106.457 66.4978 106.169 65.799C105.876 65.1114 105.279 64.8353 104.783 64.8522Z"></path>
<path fill="#EB9219" d="M105.549 65.8159C105.239 65.4496 104.935 65.3989 104.783 65.5623C104.636 65.7257 104.907 65.923 104.98 65.9793C105.053 66.0357 105.183 66.4696 105.307 66.526C105.436 66.5767 105.504 66.6725 105.707 66.3795C105.831 66.1991 105.544 65.8159 105.544 65.8159"></path>
<path fill="white" d="M85.5596 59.1095C84.8437 59.1602 84.4491 59.1207 84.2969 59.1658C84.1391 59.2053 83.316 60.2535 83.1413 62.0006C83.1413 62.0006 85.2101 62.1471 86.6476 61.9329C86.6476 61.9329 86.952 61.2566 87.0648 60.71C87.1775 60.1633 87.4087 59.0137 87.0422 58.8108C87.0422 58.8108 86.3432 59.0531 85.5596 59.1038"></path>
<path fill="#D6B569" d="M88.818 58.9742H88.0118C87.9104 58.9742 87.8822 59.0757 87.8033 59.4364C87.7243 59.797 87.5721 61.3299 87.6736 61.6343C87.7807 61.9442 88.2937 62.1246 88.6319 62.0457C88.9702 61.9668 89.6974 61.7864 90.0356 62.1753C90.3738 62.5641 89.7481 63.2911 89.5395 63.5729C89.331 63.8547 88.8687 64.4521 88.818 64.8973C88.7616 65.3369 88.8687 65.5679 89.5677 65.2805C90.2667 64.9987 92.392 63.0094 92.9839 61.8428C93.5814 60.6762 93.1643 59.8478 92.4145 59.4871C91.6648 59.1264 89.2802 58.9742 88.818 58.9742Z"></path>
<path fill="#D6B569" d="M122.692 50.7293C121.869 50.6504 120.516 50.3574 120.031 50.1376C119.552 49.9178 118.943 49.9798 118.769 50.07C118.599 50.1601 118.487 50.3968 118.723 50.5095C118.966 50.6166 119.315 51.1407 118.898 51.5521C118.487 51.9692 117.635 52.6849 116.564 52.668C116.564 52.668 116.891 54.477 116.891 54.7588C116.891 55.0406 117.28 54.9786 117.393 54.9504C117.5 54.9335 118.177 54.7588 118.549 54.4939C118.921 54.2347 119.834 54.06 120.296 54.0825C120.747 54.0994 121.491 53.8233 121.886 53.4739C122.281 53.1245 123.081 52.6454 123.566 52.5609C124.051 52.4707 124.682 52.172 124.829 52.0143C124.986 51.8621 125.33 51.6198 125.657 51.4901C125.984 51.3605 126.768 50.7462 126.796 50.3348C126.818 49.9234 126.136 49.9403 125.618 50.008C125.093 50.0756 124.287 50.3574 123.938 50.5095C123.588 50.6617 123.177 50.7688 122.698 50.7293"></path>
<path fill="white" d="M114.405 53.2598C113.988 53.3217 113.362 53.3837 113.143 53.3837C112.923 53.3837 112.861 53.3837 112.816 53.6035C112.771 53.8233 113.3 55.4971 113.492 56.0663C113.684 56.6299 113.909 57.3738 114.101 57.2892C114.298 57.2047 115.302 56.7031 115.544 56.5904C115.781 56.4833 116.113 56.0268 116.204 55.5027C116.282 55.0237 116.029 52.7525 115.764 52.8653C115.454 52.9949 115.262 53.1245 114.405 53.2598Z"></path>
<path fill="white" d="M97.4993 76.8279C97.2174 76.4278 97.054 76.208 97.054 76.208C97.054 76.208 96.4 75.7684 95.6108 74.196C95.6108 74.196 94.0662 75.0583 92.5273 76.0727C90.9883 77.0871 87.7525 78.9807 87.031 79.3076C86.3094 79.6344 86.0163 79.9895 86.0839 80.322C86.1459 80.6488 86.5405 81.4604 87.7187 82.9313C88.8969 84.4022 91.2194 87.637 92.2003 88.7867C93.1812 89.9307 93.5758 90.359 93.8013 90.359C94.0268 90.359 95.3064 89.6715 96.1238 88.7585C96.9412 87.8399 98.3167 86.4028 99.1341 85.7829C99.9571 85.1573 100.932 84.4416 100.966 83.9513C101 83.461 101.034 83.168 100.899 82.9369C100.769 82.7115 97.9277 77.4253 97.4993 76.8279Z"></path>
<path fill="white" d="M86.1797 82.8749C86.1797 82.8749 85.3285 81.3364 85.165 81.0434C85.0072 80.7503 84.7422 80.6545 84.5788 80.7503C84.4153 80.8518 82.9102 81.7027 82.2224 82.3847C82.2224 82.3847 82.9383 83.8612 83.2033 83.957C83.4626 84.0528 83.9192 84.3515 84.7084 83.9232C85.492 83.4949 85.9486 82.9764 86.1797 82.8749Z"></path>
<path fill="white" d="M81.67 89.2488C80.8244 88.0034 80.0972 86.927 79.6744 86.4705C79.246 86.014 79.0543 85.7491 79.0543 85.6251C79.0543 85.5012 78.6597 85.2307 78.5357 85.7491C78.406 86.2732 80.007 88.7924 80.8244 90.1336C81.6418 91.4693 84.0602 94.5463 84.9452 93.8926C84.9452 93.8926 84.3871 93.7912 83.8967 92.8106C83.4062 91.83 82.3577 90.2633 81.6756 89.2432"></path>
<path fill="white" d="M98.6944 76.7434C98.6944 76.7434 100.47 80.0233 100.786 80.7109C101.107 81.3984 103.3 84.8418 103.965 85.6871C104.63 86.5325 106.823 89.818 107.015 90.1111C107.201 90.4041 107.517 90.5845 107.911 90.3253C108.306 90.0604 110.296 89.4517 111.801 88.8149C113.312 88.1781 115.24 87.1468 116.091 86.5381C116.936 85.9295 117.624 85.4561 117.23 85.0052C116.824 84.5544 116.018 83.9739 115.296 83.3934C114.58 82.8073 114.18 82.2269 113.419 81.59C112.646 80.9532 110.583 78.8398 109.924 78.0678C109.259 77.3013 106.643 73.965 106.88 73.6494C107.116 73.3282 108.018 74.6808 108.729 75.4472C109.445 76.2136 110.955 77.8818 111.429 78.203C111.902 78.5243 112.962 78.2537 113.464 78.017C113.971 77.7747 115.956 77.2224 116.745 77.059C117.545 76.9012 119.924 75.6332 120.031 75.1034C120.138 74.5737 120.054 73.672 119.766 73.3846C119.473 73.0915 118.678 72.0827 118.526 71.8235C118.363 71.5586 116.643 69.7552 116.508 69.6256C116.373 69.496 116.271 69.5242 116.187 69.7327C116.102 69.9468 114.997 72.8041 114.202 73.176C113.408 73.5424 111.79 72.8323 110.414 72.3251C109.033 71.8235 107.285 71.2656 106.97 71.4234C106.654 71.5812 106.519 72.1898 106.254 72.7252C105.989 73.2493 105.606 74.4384 104.58 74.9963C103.762 75.4472 99.9402 76.8279 98.6775 76.749"></path>
<path fill="white" d="M111.435 93.3347C111.908 93.1093 112.641 92.9233 112.641 92.5964C112.641 92.2696 112.376 91.6384 112.032 91.334C111.683 91.0297 111.378 90.8099 111.288 90.7198C111.198 90.6296 111.074 90.5281 110.786 90.5676C110.499 90.607 108.712 91.0241 108.56 91.4186C108.413 91.8074 108.87 92.2019 109.044 92.3992C109.219 92.5964 109.743 93.2952 109.856 93.4869C109.969 93.6841 110.38 93.9433 110.617 93.8194C110.86 93.6897 111.119 93.4869 111.44 93.3347"></path>
<path fill="white" d="M122.168 92.7485C121.987 93.081 121.249 94.4674 118.678 95.9946C116.108 97.5162 115.606 97.9784 115.448 98.6321C115.296 99.2858 115.668 99.7423 116.869 98.6546C118.069 97.5613 119.219 97.2345 120.381 96.2144C121.536 95.1887 121.706 94.907 122.23 94.163C122.647 93.5769 122.602 92.2864 122.405 92.2019C122.207 92.1117 122.337 92.416 122.162 92.7429"></path>
<path fill="#E60012" d="M118.346 40.1963C117.697 40.2696 117.168 40.2526 117.044 40.1287C116.92 39.999 117.01 42.6478 117.049 42.845C117.089 43.0479 117.207 43.0986 117.517 43.1663C117.883 43.2395 118.656 43.2564 118.949 43.0423C119.236 42.8281 120.307 42.2477 121.429 42.8958C121.429 42.8958 121.339 40.4499 121.339 40.2527C121.339 40.0554 121.395 39.7962 121.085 39.7624C120.781 39.7229 120.127 39.6665 119.546 39.8525C118.966 40.0329 118.661 40.1625 118.351 40.1963"></path>
<path fill="white" d="M118.07 50.7067C118.07 50.7067 117.641 49.7261 118.69 49.3993C119.738 49.0724 120.55 49.2696 121.204 49.5289C121.863 49.7881 122.777 49.8557 123.137 49.8896C123.498 49.9234 125.296 49.1062 126.176 49.202C127.055 49.3035 127.348 49.6303 127.484 49.8896C127.613 50.1544 128.363 49.9516 128.363 49.9516C128.363 49.9516 130.195 48.6779 130.584 48.289C130.973 47.8945 130.229 48.0242 129.998 48.0242C129.767 48.0242 126.892 48.5145 125.646 48.5145C124.4 48.5145 121.886 48.6779 121.463 48.5821C121.035 48.4863 119.174 48.289 117.602 48.4187C116.034 48.5483 112.336 48.6779 112.5 48.9428C112.663 49.202 117.044 51.0336 118.058 50.7067"></path>
<path fill="white" d="M121.474 47.6973C121.474 47.6973 121.429 47.2859 121.514 47.0211C121.604 46.7562 121.649 45.7981 121.232 45.6065C120.815 45.4093 120.381 45.4938 120.189 45.584C119.992 45.6685 119.445 45.8207 119.231 45.6516C119.017 45.4769 118.25 45.3924 118.053 45.4769C117.861 45.5614 117.421 45.8883 117.162 45.9559C116.903 46.0236 116.333 46.4575 116.204 46.6547C116.068 46.852 115.894 47.2916 115.178 47.3536C114.456 47.4212 114.152 47.4606 113.954 47.9397C113.954 47.9397 117.771 47.2859 121.48 47.703"></path>
<path fill="#EB9219" d="M124.913 45.3641C124.564 45.3416 123.977 44.9753 123.695 44.902C123.414 44.84 122.675 44.9246 122.45 45.2514C122.235 45.5783 122.258 45.8432 122.297 46.125C122.343 46.4067 122.275 46.7843 122.23 46.9534C122.185 47.1281 122.275 47.4324 122.405 47.5395C122.534 47.6522 122.512 47.7593 122.512 47.7593C122.512 47.7593 127.241 47.7818 128.741 47.3479C128.741 47.3479 128.436 47.1506 128.262 46.8463C128.087 46.542 127.608 46.1926 127.236 46.063C126.869 45.9333 126.909 45.7361 126.277 45.5614C125.646 45.3867 124.902 45.3641 124.902 45.3641"></path>
<path fill="#1A0B08" d="M109.518 17.3776C108.56 17.6932 104.816 18.7358 104.134 19.7615C103.452 20.7815 103.514 22.2637 105.031 22.2355C106.541 22.2017 107.624 20.6012 107.815 20.2912C108.001 19.9757 107.348 19.5135 106.919 20.1053C106.491 20.6914 105.002 21.7114 104.664 21.0633C104.326 20.4096 105.374 19.7333 106.152 19.4234C106.919 19.1134 109.704 18.1835 109.704 18.1835C109.704 18.1835 106.181 24.4278 105.527 25.2957C104.878 26.1579 103.514 28.0121 102.686 27.2118C101.851 26.4059 103.83 24.6814 104.568 24.3658C105.312 24.0558 105.098 23.0696 104.258 23.3739C103.424 23.6839 101.851 24.8899 101.445 26.4003C101.045 27.9163 102.866 28.6263 103.976 28.0121C105.093 27.3978 106.327 26.034 107.782 23.4641C109.236 20.8999 111.023 17.9919 111.023 17.4396C111.023 16.8873 110.747 16.9775 109.512 17.3776"></path>
<path fill="#1A0B08" d="M113.402 16.7296C113.035 16.6902 112.714 16.9663 112.714 17.4115C112.714 17.8568 112.917 18.054 113.402 18.054C113.887 18.054 113.887 17.3777 113.887 17.2481C113.887 17.1185 113.796 16.7691 113.402 16.724"></path>
<path fill="#1A0B08" d="M115.223 26.6257C115.696 26.5581 115.668 27.1611 115.386 27.3245C115.11 27.488 113.915 27.8994 113.915 27.8994C113.915 27.8994 111.908 31.5738 112.477 31.5118C113.052 31.4442 113.915 30.334 114.524 29.421C115.127 28.5024 115.24 28.6038 115.24 28.6038C115.871 27.0597 116.92 26.158 117.793 26.0734C118.661 25.9833 118.859 27.0597 118.859 27.0597C120.206 26.7722 121.147 25.4648 121.384 25.183C121.627 24.9012 121.875 25.0421 121.908 25.1605C121.959 25.3408 121.818 25.7916 120.668 26.6877C119.513 27.5781 118.836 27.5781 118.836 27.5781C118.487 29.5619 116.655 30.999 115.939 30.8243C115.217 30.6496 115.087 29.6464 115.087 29.6464C114.078 31.4554 112.945 32.0021 112.252 31.957C111.553 31.9119 111.621 31.2357 111.598 30.999C111.575 30.7566 111.051 31.6921 110.944 31.8499C110.831 32.0021 110.538 32.6953 110.273 32.5657C110.02 32.4417 110.155 32.1543 110.42 31.6978C110.685 31.2413 112.427 28.322 112.427 28.322C111.773 28.6038 111.384 28.5193 111.316 28.1924C111.248 27.8656 113.193 27.2964 113.193 27.2964C113.391 26.9244 114.349 25.4028 114.524 25.2055C114.693 25.0139 114.98 25.0139 115.2 25.2506C115.42 25.4873 114.591 26.7497 114.591 26.7497C114.591 26.7497 114.76 26.6933 115.234 26.6257M117.63 26.823C117.562 26.8117 116.514 27.8036 116.204 29.111C115.894 30.4185 116.874 30.3903 117.5 29.3421C118.12 28.2939 118.267 27.5781 118.267 27.5781C118.267 27.5781 117.94 27.5274 117.827 27.3302C117.709 27.1386 117.72 26.8455 117.63 26.8286"></path>
<path fill="#1A0B08" d="M111.288 20.5393C111.536 20.3307 112.004 20.6294 111.829 21.1479C111.654 21.6776 110.239 23.791 110.087 24.1122C109.935 24.4391 110.324 24.5067 110.499 24.4222C110.673 24.332 112.026 22.2412 112.68 21.3001C113.334 20.3589 114.445 19.0345 115.014 19.0571C115.578 19.0796 115.471 20.0602 115.471 20.0602C116.125 19.1867 116.559 19.2092 116.931 19.2994C117.297 19.3839 117.235 20.2631 117.235 20.2631C117.235 20.2631 118.126 18.9951 118.847 18.9951C119.569 18.9951 119.614 19.7615 119.479 19.9701C119.349 20.1898 118.52 21.3677 118.915 21.6326C119.304 21.8974 120.375 20.8661 120.375 20.8661C119.958 20.0828 120.285 18.6682 121.271 17.5298C122.252 16.3971 123.622 16.0477 123.69 17.0677C123.757 18.0934 121.621 20.6012 121.621 20.6012C122.839 21.1704 124.473 18.64 124.936 18.0314C125.392 17.4171 125.482 16.6788 125.894 16.7859C126.311 16.8986 126.091 17.5693 125.285 18.6344C124.479 19.7052 123.87 20.6407 122.76 21.2268C121.649 21.8185 120.798 21.317 120.798 21.317C120.798 21.317 118.723 23.0358 118.12 22.2299C117.506 21.424 118.289 20.5731 118.532 20.0039C118.769 19.4403 118.419 19.8066 117.833 20.3533C117.246 20.8999 116.345 22.3427 116.198 22.6921C116.04 23.0358 115.674 23.5769 115.257 23.4303C114.845 23.2782 115.127 22.3427 115.651 21.5311C116.17 20.7252 116.519 19.9813 116.39 19.9588C116.26 19.9419 115.561 20.7929 115.037 21.486C114.518 22.1849 113.819 23.5318 113.644 23.8417C113.47 24.1461 113.21 24.3433 112.99 24.2813C112.771 24.2137 112.669 23.9544 112.771 23.667C112.844 23.4585 113.729 21.9707 114.123 21.2719C114.512 20.5787 114.642 20.2237 114.603 20.1335C114.563 20.049 114.236 20.4209 113.729 21.0746C113.227 21.7284 111.575 24.1235 111.136 24.6702C110.696 25.2112 110.155 25.5437 109.608 25.2844C109.061 25.0196 109.197 24.146 109.197 24.146C108.886 24.4278 107.708 25.7635 107.472 26.1467C107.274 26.4679 106.88 26.3439 106.953 26.0903C107.032 25.8255 107.319 25.4986 107.663 25.0139C108.013 24.5349 110.521 21.3733 110.803 20.9845C110.803 20.9845 111 20.7647 111.282 20.528M121.784 18.2456C121.452 18.7133 121.131 19.3896 121.097 20.156C121.097 20.156 121.852 19.322 122.371 18.5048C122.895 17.6876 122.991 17.3439 122.833 17.3608C122.669 17.372 122.134 17.7496 121.79 18.2456"></path>
<path fill="#1A0B08" d="M108.114 35.5357C108.216 35.3948 108.655 35.0454 108.898 34.8031C109.14 34.5607 109.501 34.0028 109.275 33.8506C109.05 33.7098 107.669 34.0817 106.823 35.0623C105.972 36.0429 106.198 36.8601 106.198 36.8601C106.806 36.4036 107.083 36.5783 107.314 36.7135C107.539 36.8432 107.46 37.0066 107.314 37.1193C107.161 37.2377 106.66 37.6096 105.904 38.2295C105.149 38.8494 103.728 40.7487 104.072 41.4982C104.416 42.2534 105.172 42.0054 106.248 41.3855C107.331 40.7656 109.794 37.8745 110.403 37.1024C111.006 36.336 111.728 35.6146 112.376 35.3046C113.035 34.9947 113.622 35.3497 113.672 35.4681C113.718 35.5808 113.785 35.6315 113.864 35.4793C113.949 35.3328 114.129 35.051 114.315 34.8031C114.501 34.5551 114.828 34.7016 114.913 34.927C114.992 35.1525 114.355 36.1162 113.887 36.9615C113.413 37.8069 113.515 38.1563 113.701 38.2013C113.887 38.2408 114.298 37.6209 115.488 36.1838C116.683 34.7467 116.745 34.3128 116.745 34.3128C116.745 34.3128 116.102 34.5607 116.04 34.1888C115.978 33.8225 117.252 33.5125 117.252 33.5125C117.252 33.5125 117.748 32.6277 118.284 31.912C118.814 31.1963 119.208 31.3597 119.293 31.6866C119.372 32.0134 118.757 33.0222 118.757 33.0222C118.757 33.0222 119.518 32.8137 119.518 33.2251C119.518 33.6365 118.177 33.9465 118.177 33.9465C117.827 34.3353 116.948 36.0824 116.841 36.6177C116.739 37.1531 116.841 37.2377 117.049 37.0911C117.252 36.9446 118.12 36.0598 118.712 35.2821C119.31 34.5044 119.806 33.5351 120.195 33.6985C120.584 33.8619 120.009 34.6622 119.535 35.2596C119.062 35.8569 118.075 37.4349 116.925 37.6829C115.775 37.9308 115.815 36.6966 115.815 36.6966C114.975 37.8858 113.864 38.8776 113.537 38.8945C113.205 38.9171 112.816 38.4437 112.816 38.4437C112.816 38.4437 112.382 39.3059 111.277 39.5764C110.166 39.8413 109.896 38.7311 109.896 38.7311C109.896 38.7311 107.477 41.9547 105.436 42.5971C103.401 43.234 102.539 41.9998 103.074 40.4387C103.61 38.8776 105.498 37.2095 105.498 37.2095C105.397 37.2095 105.048 36.8826 105.29 35.7104C105.538 34.5382 108.109 32.6221 109.259 33.0786C110.403 33.5294 110.059 34.5382 109.709 35.175C109.36 35.8118 108.176 36.5614 107.945 36.0373C107.889 35.9189 108.013 35.6766 108.114 35.5301M113.312 35.8006C113.216 35.609 112.415 36.0147 111.807 36.8263C111.203 37.6434 110.64 38.3704 110.978 38.6916C111.48 39.1819 112.184 38.3141 112.449 37.9421C112.708 37.5645 113.56 36.3078 113.317 35.8006"></path>
<path fill="#1A0B08" d="M123.476 29.9789C122.81 31.1568 122.235 32.5319 122.049 33.0334C121.875 33.535 121.694 33.7886 122.038 34.0197C122.382 34.2564 122.664 33.5406 122.827 33.2307C122.985 32.9207 124.676 30.1931 124.874 29.7986C125.071 29.4041 125.037 28.9532 124.75 28.8123C124.462 28.6715 124.265 28.6827 124.011 29.0265C123.757 29.3703 123.633 29.6915 123.476 29.9789Z"></path>
<path fill="#1A0B08" d="M121.204 34.7579C120.905 34.7579 120.522 35.1017 120.522 35.4398C120.522 35.778 120.899 36.0372 121.204 36.0372C121.508 36.0372 121.835 35.7667 121.835 35.3948C121.835 35.0228 121.441 34.7636 121.204 34.7636"></path>
<path fill="#1A0B08" d="M76.3766 19.3276C76.1399 19.6545 75.982 20.0265 75.7847 20.3702C76.2357 19.5982 76.7205 18.7641 77.5266 18.3132C77.0756 18.5668 76.6754 18.9219 76.3766 19.3333"></path>
<path fill="#1A0B08" d="M75.7847 20.3646C75.7283 20.4604 75.6833 20.5675 75.6382 20.6971C76.2188 19.8856 76.8502 19.0684 77.5266 18.3076C76.7205 18.7585 76.2357 19.5925 75.7847 20.3646Z"></path>
<path fill="#EB9219" d="M76.1004 8.85657C76.0666 8.85657 76.0384 8.85657 76.0102 8.85657C74.5389 8.91292 72.2502 10.3275 71.1397 11.7026C70.4801 12.5254 70.5816 13.6299 70.8127 14.5091C72.0416 11.9731 75.3056 9.44831 76.0948 8.85657"></path>
<path fill="#E60012" d="M79.2234 9.47652C78.4117 9.08202 77.38 8.82278 76.0948 8.86223C75.3055 9.44834 72.0416 11.9787 70.8127 14.5148C70.9705 15.1121 71.1847 15.6024 71.2693 15.8279C71.3482 16.0533 71.4948 16.3858 71.6244 16.8479C72.8477 15.1516 76.3202 10.6825 79.2291 9.48215"></path>
<path fill="#E60012" d="M73.7271 27.9501C74.0935 27.4203 75.221 25.786 75.6156 25.0984C75.4296 23.4923 75.3337 21.6607 75.6438 20.697C73.8962 23.1429 72.6504 25.5324 72.3065 26.1974C72.6166 26.868 73.0732 27.5387 73.7328 27.9501"></path>
<path fill="#EB9219" d="M75.8298 28.2714C75.9031 28.1417 75.9764 28.0065 76.0215 27.9051C75.9313 27.3922 75.7453 26.3045 75.61 25.0985C75.2154 25.7917 74.0935 27.4204 73.7271 27.9501C74.2739 28.2883 74.9617 28.4461 75.8298 28.2714Z"></path>
<path fill="#1A0B08" d="M76.0779 28.2094C76.0779 28.2094 76.0553 28.0966 76.0215 27.905C75.9707 28.0008 75.9031 28.1417 75.8298 28.2713C75.9144 28.2544 75.9933 28.2375 76.0835 28.215"></path>
<path fill="#EB9219" d="M80.6102 10.4684C80.255 10.1078 79.7984 9.75834 79.2234 9.47656C76.3146 10.677 72.8477 15.146 71.6188 16.8423C71.8048 17.5299 71.957 18.4992 71.8217 19.8799C71.8217 19.9137 71.8161 19.9476 71.8105 19.9757C74.319 14.4528 79.2685 11.2743 80.6045 10.4684"></path>
<path fill="#E60012" d="M77.5266 18.3075C78.3496 17.8454 79.5053 17.7778 81.3092 18.5668C81.3092 18.5668 81.3881 16.7803 81.4163 15.0896C80.0521 15.7602 78.7273 16.9437 77.5266 18.3019"></path>
<path fill="#EB9219" d="M71.6808 23.6445C71.7259 24.3264 71.833 24.9463 72.0247 25.4986C72.1036 25.724 72.1938 25.9607 72.3066 26.1974C72.6504 25.5268 73.8963 23.1429 75.6438 20.697C75.6832 20.573 75.734 20.466 75.7904 20.3645C75.9877 20.0207 76.1455 19.6488 76.3823 19.3219C76.681 18.9105 77.0813 18.5555 77.5323 18.3019C78.7273 16.9437 80.0521 15.7602 81.4163 15.0896C81.4163 14.9938 81.4163 14.898 81.4163 14.8022C81.4276 14.0808 81.5234 13.4665 81.5629 12.9368C79.9112 13.8497 74.9504 16.955 71.6752 23.6388"></path>
<path fill="#E60012" d="M81.5685 12.1309C81.5178 11.7308 81.2134 11.0827 80.6102 10.4684C79.2742 11.2743 74.3247 14.4528 71.8161 19.9757C71.6808 21.362 71.6075 22.5793 71.6808 23.6445C74.9561 16.9606 79.9168 13.8554 81.5685 12.9424C81.5911 12.6437 81.6023 12.3676 81.5685 12.1253"></path>
<path fill="#E60012" d="M82.4141 20.5562C81.9067 20.0715 81.343 19.6376 80.7849 19.3558C80.6553 19.2938 80.5312 19.2431 80.4129 19.1924C79.5109 19.8348 77.6337 21.4072 76.557 22.7879C76.6134 23.5149 76.7656 24.5406 76.9291 25.5156C77.8085 24.349 79.945 21.8524 82.4141 20.5506"></path>
<path fill="#EB9219" d="M86.2474 24.8787C86.1797 24.704 85.6273 24.2419 85.1087 23.7234C84.7141 23.9601 84.0432 24.5518 83.7276 24.8618C84.7986 24.7829 86.2474 24.8787 86.2474 24.8787Z"></path>
<path fill="#EB9219" d="M80.4129 19.1867C79.043 18.6345 78.0622 19.0177 77.583 19.3164C76.8783 19.7559 76.5345 20.7591 76.5345 22.292C76.5345 22.4329 76.5401 22.6019 76.557 22.7823C77.6394 21.3959 79.5109 19.8236 80.4129 19.1867Z"></path>
<path fill="#E60012" d="M85.1087 23.7234C84.8606 23.4698 84.6182 23.205 84.4491 22.9514C84.2969 22.7147 84.0489 22.3765 83.7332 21.9877C82.6114 22.5512 79.7477 24.287 77.2786 27.4599C77.3857 27.9952 77.4533 28.3447 77.4533 28.3447C77.4533 28.3447 78.8288 28.1136 79.6462 27.071C80.4636 26.0228 82.0026 25.3071 82.8482 25.014C83.0567 24.9351 83.3724 24.8957 83.7332 24.8675C84.0489 24.5519 84.7141 23.9658 85.1143 23.7234"></path>
<path fill="#EB9219" d="M83.7332 21.9876C83.3668 21.5311 82.9102 21.0183 82.4141 20.5562C79.945 21.8523 77.8141 24.3489 76.9291 25.5211C77.0531 26.2481 77.1771 26.947 77.2786 27.4654C79.7477 24.2926 82.6114 22.5568 83.7332 21.9932"></path>
<path fill="#1A0B08" d="M73.0789 108.906C73.2762 108.725 74.8489 104.95 74.8489 104.95C74.8489 104.95 68.6649 104.927 68.2252 104.961C67.7179 104.995 65.2995 105.13 63.6365 106.353C61.9735 107.576 61.5 109.531 61.5 111.138C61.5 112.744 62.8022 114.547 64.1044 115.33C65.401 116.108 68.8397 117.799 74.0203 116.057L75.3732 112.806C75.3732 112.806 74.1274 113.713 72.5884 113.713C71.0495 113.713 69.1779 112.856 69.1779 110.433C69.1779 108.01 70.4012 107.26 71.2355 107.26C72.0698 107.26 72.5828 107.643 72.8026 108.094C73.0225 108.54 72.9943 108.765 72.9774 108.816C72.9661 108.861 72.9774 108.99 73.0845 108.9"></path>
<path fill="#1A0B08" d="M82.7749 104.938C82.9665 104.899 75.2323 104.938 75.1252 104.938C75.0181 104.938 75.0462 104.989 75.1252 105C75.2041 105.012 76.2582 105.181 76.4499 106.043C76.6472 106.9 76.557 112.507 76.5852 113.431C76.6078 114.356 76.9234 115.381 78.7555 116.086C80.5933 116.784 82.8594 116.784 83.7952 116.784C84.731 116.784 86.3207 116.537 87.3072 116.289C88.2993 116.041 88.8405 115.5 89.4099 114.615C89.9736 113.736 89.7594 112.056 89.7594 111.216C89.7594 110.377 89.6185 106.883 89.8778 106.128C90.1314 105.367 90.6783 105.113 90.9883 105.113C91.2984 105.113 92.0988 105.367 92.0988 106.105C92.0988 106.843 92.2736 109.109 92.2172 111.098C92.1608 113.093 92.2398 114.868 91.6704 115.471C91.1067 116.074 90.402 116.429 90.402 116.429H99.1679C99.1679 116.429 98.1701 116.001 97.8601 115.454C97.5444 114.908 97.2738 113.521 97.2738 111.588C97.2738 109.655 97.116 107.334 97.7248 106.77C98.328 106.206 99.85 106.263 99.8106 107.942C99.7711 109.622 98.1927 109.503 98.1927 109.503C98.1927 109.503 98.6606 113.347 101.18 115.533C103.695 117.72 106.863 117.055 108.221 115.905C108.221 115.905 108.007 116.3 107.776 116.475H115.753C115.753 116.475 113.937 115.888 113.808 114.423C113.672 112.958 113.768 108.218 113.768 107.677C113.768 107.136 113.983 106.437 115.008 106.437C116.034 106.437 116.339 107.677 116.17 108.382C116.08 108.776 115.978 109.469 114.794 110.005C114.794 110.005 114.732 110.58 115.076 111.983C115.431 113.381 116.407 115.099 118.267 116.322C120.121 117.545 123.081 117.449 124.411 116.976C125.736 116.491 127.455 115.359 128.324 114.091C128.324 114.091 128.459 116.097 127.129 116.497H135.765C135.765 116.497 134.558 116.108 134.361 114.874C134.169 113.64 134.13 111.076 134.282 110.867C134.44 110.659 135.596 109.216 136.368 108.41C137.14 107.604 138.42 106.235 139.023 105.795C139.621 105.35 140.026 104.95 140.517 104.899V104.82L133.391 104.888C133.391 104.888 134.017 105.417 133.899 106.122C133.78 106.821 132.49 108.292 132.49 108.292C132.49 108.292 131.396 106.821 131.373 106.184C131.345 105.541 131.841 105.209 132.117 105.102C132.394 105 132.473 104.871 132.473 104.871L122.049 104.927C122.049 104.927 123.166 105.327 124.124 106.201C125.071 107.074 127.698 110.191 128.166 110.907L128.312 113.003C128.312 113.003 126.204 114.513 124.225 114.434C122.252 114.356 121.418 111.904 121.119 110.247C121.119 110.247 122.777 109.639 122.918 107.762C123.058 105.896 121.536 105.045 120.138 104.967C118.729 104.888 110.301 104.927 109.388 104.927C108.475 104.927 106.874 104.888 107.24 105.017C107.612 105.147 108.255 105.615 108.334 106.229C108.413 106.838 108.554 112.203 108.554 113.786C108.554 113.786 105.143 114.829 104.287 110.27C104.287 110.27 105.758 110.134 106.423 109.007C107.083 107.875 106.851 106.539 106.124 105.71C105.397 104.893 104.574 104.972 104.202 104.972H84.1053C83.891 104.972 83.5528 104.984 83.7332 105.04C83.9192 105.102 84.3702 105.395 84.545 106.201C84.7197 107.012 84.6464 111.2 84.6352 111.887C84.6295 112.58 84.5675 114.226 83.2315 114.226C81.8955 114.226 81.8053 112.332 81.8053 111.876C81.8053 111.419 81.6869 106.691 81.7658 106.082C81.8447 105.479 82.3634 105.045 82.8031 104.955"></path>
<path fill="#1A0B08" d="M92.4765 118.312C92.0086 118.498 91.755 119.219 91.7042 120.2C91.6535 121.18 91.8452 124.86 91.8452 125.362C91.8452 125.863 91.9974 127.036 93.1192 127.036C94.241 127.036 94.2804 125.869 94.2804 125.441C94.2804 125.012 94.3312 121.439 94.3312 120.295C94.3312 119.151 93.6209 118.255 93.5081 118.176C93.3954 118.098 93.4856 118.109 93.7393 118.109C93.9929 118.109 108.999 118.165 109.45 118.165C109.901 118.165 111.277 118.069 112.833 118.757C114.394 119.444 115.736 122.031 114.811 124.235C113.887 126.444 112.1 127.092 110.087 126.726C108.069 126.365 106.908 124.911 106.908 124.911C106.84 127.441 107.246 128.106 107.505 128.535C107.77 128.963 108.717 129.527 108.717 129.527C108.717 129.527 100.075 129.543 100.233 129.527C100.391 129.504 100.932 129.166 101.389 128.704C101.851 128.242 101.913 127.165 101.913 126.793C101.913 126.421 101.953 121.225 101.953 119.895C101.953 118.565 100.842 118.278 100.684 118.278C100.526 118.278 99.8049 118.3 99.6471 119.568C99.4892 120.831 99.8613 124.866 99.4329 126.855C99.0044 128.845 97.7924 129.053 96.5466 129.566C95.2951 130.073 92.1721 130.175 89.8327 129.684C87.4932 129.2 86.9859 128.106 86.7491 127.188C86.518 126.269 86.5744 119.98 86.4785 119.219C86.3827 118.458 85.5258 118.069 85.5258 118.069H93.0177C93.0064 118.137 92.9501 118.126 92.4822 118.312M108.514 123.074C109.495 122.612 109.298 121.011 108.892 120.402C108.486 119.799 107.838 119.737 107.274 120.155C106.716 120.577 106.84 122.933 106.84 122.933C106.84 122.933 107.539 123.536 108.52 123.074"></path>
<path fill="#231815" d="M110.623 127.565C110.025 127.565 109.552 128.033 109.552 128.631C109.552 129.228 110.025 129.696 110.623 129.696C111.22 129.696 111.694 129.222 111.694 128.631C111.694 128.039 111.22 127.565 110.623 127.565ZM110.623 129.532C110.132 129.532 109.721 129.132 109.721 128.631C109.721 128.129 110.138 127.729 110.623 127.729C111.108 127.729 111.53 128.123 111.53 128.631C111.53 129.138 111.113 129.532 110.623 129.532ZM111.147 128.349C111.147 128.101 110.944 128.039 110.735 128.039H110.222V129.205H110.386V128.664H110.583L110.933 129.205H111.124L110.775 128.664C110.984 128.664 111.147 128.58 111.147 128.349ZM110.583 128.501H110.386V128.202H110.696C110.826 128.202 110.984 128.225 110.984 128.343C110.984 128.535 110.73 128.501 110.583 128.501Z"></path>
</g>
<defs>
<clipPath id="clip0_5_1878">
<rect transform="translate(61.5 8)" fill="white" height="122" width="79"></rect>
</clipPath>
</defs>
</svg>
