<svg xmlns="http://www.w3.org/2000/svg" fill="none" viewBox="0 0 200 139" height="139" width="200">
<g clip-path="url(#clip0_5_1832)">
<path fill="#D89452" d="M133.848 48.3786C133.539 48.1064 132.675 47.3023 131.761 47.1909C130.798 47.0796 130.539 48.6755 129.365 48.0198C128.452 47.5002 127.76 45.8672 127.142 44.9269C126.76 44.3207 125.685 43.3681 123.722 42.9475C121.289 42.4279 120.215 41.9454 118.881 40.9928C118.3 40.5845 117.325 39.3721 114.843 39.137C113.41 39.001 112.002 39.669 110.718 40.1763C109.619 40.6093 108.779 41.0423 107.754 41.3639C106.779 41.6732 105.445 41.9083 103.222 40.6835C102.666 40.3742 102.16 40.1268 101.654 40.0031C100.802 39.7927 100.073 39.8299 100.073 39.8299C100.073 39.8299 99.3444 39.7927 98.4923 40.0031C97.9859 40.1268 97.4796 40.3866 96.9239 40.6835C94.701 41.9083 93.355 41.6732 92.3917 41.3639C91.3667 41.0423 90.527 40.6093 89.4279 40.1763C88.1436 39.669 86.7358 39.001 85.3033 39.137C82.8211 39.3597 81.8455 40.5845 81.2651 40.9928C79.9314 41.933 78.857 42.4279 76.4242 42.9475C74.4606 43.3681 73.3863 44.3207 73.0034 44.9269C72.386 45.8795 71.6944 47.5002 70.7806 48.0198C69.6197 48.6755 69.3481 47.0796 68.3848 47.1909C67.471 47.3023 66.6065 48.1064 66.2978 48.3786C65.5445 49.0467 65.1493 49.591 65.0505 49.7147C63.8279 51.2735 64.5936 52.8818 64.7665 53.3891C65.0876 54.2922 65.2234 55.1953 65.3222 56.8407C65.3469 57.1871 65.3592 57.5335 65.3839 57.8923C65.4827 59.8965 65.5815 61.9626 66.7177 64.3255C67.0511 65.0183 67.3722 65.6617 67.6933 66.2679C68.7306 68.3092 69.311 70.0659 69.595 72.2309C69.6815 72.9114 69.805 74.7547 69.842 75.0022C70.0396 76.2146 71.0522 75.93 71.3486 74.9403C71.4351 74.6434 71.5215 74.2723 71.5833 73.8145L71.7191 72.9114C72.1266 70.1525 72.2872 64.1523 72.5836 60.3419C72.9046 56.2098 74.3865 51.5705 76.56 47.7229C78.2642 44.7042 80.944 43.0465 81.8208 42.5763C83.2409 41.8217 84.4141 41.8588 83.9696 43.7145C83.3891 46.0775 81.4627 46.9064 80.0919 48.5023C79.2151 49.5168 78.3013 51.1251 77.6467 52.6468C76.5477 55.1829 75.745 58.3872 75.5597 60.7873C75.3868 62.9647 73.8802 74.1856 76.2636 80.223C76.5353 80.9034 76.8687 81.4972 77.2145 82.0045C77.3751 82.2395 77.8937 82.9447 78.3753 83.2416C78.7458 83.4643 79.1163 83.5509 79.425 83.2664C79.8696 82.8457 80.4006 82.623 80.5735 83.3901C80.7094 83.9963 80.944 84.652 81.2033 85.2458C81.969 87.0397 82.6976 88.0047 82.9569 88.3387C84.2042 89.9223 84.8093 88.883 85.118 88.2645C85.4021 87.683 86.1183 84.7509 86.0566 83.3777C86.0566 83.1055 86.0319 82.8086 86.0072 82.487C85.8096 79.3075 85.4638 73.3939 91.2433 69.7443C94.7875 67.505 98.7516 67.3318 99.9248 67.3318H100.098H100.246H100.271C101.444 67.3318 105.408 67.5174 108.952 69.7443C114.732 73.3939 114.373 79.3075 114.188 82.487C114.163 82.8086 114.151 83.1055 114.139 83.3777C114.089 84.7509 114.793 87.6954 115.077 88.2645C115.386 88.883 115.991 89.9223 117.251 88.3387C117.51 88.0047 118.239 87.0397 119.004 85.2458C119.264 84.652 119.498 83.9963 119.634 83.3901C119.807 82.6107 120.35 82.8457 120.783 83.2664C121.079 83.5509 121.462 83.4643 121.832 83.2416C122.302 82.9447 122.833 82.2395 122.993 82.0045C123.339 81.4972 123.672 80.9034 123.944 80.223C126.327 74.1856 124.821 62.9647 124.648 60.7873C124.463 58.3996 123.66 55.1953 122.561 52.6468C121.906 51.1251 120.993 49.5168 120.116 48.5023C118.745 46.9188 116.819 46.0775 116.238 43.7145C115.781 41.8588 116.967 41.8217 118.387 42.5763C119.264 43.0465 121.943 44.7042 123.648 47.7229C125.821 51.5705 127.303 56.2222 127.624 60.3419C127.921 64.1523 128.093 70.1525 128.489 72.9114L128.624 73.8145C128.686 74.2723 128.773 74.6434 128.859 74.9403C129.155 75.9177 130.168 76.2146 130.366 75.0022C130.403 74.7671 130.526 72.9238 130.613 72.2309C130.897 70.0659 131.477 68.3092 132.514 66.2679C132.823 65.6493 133.157 65.0183 133.49 64.3255C134.626 61.9626 134.725 59.8965 134.824 57.8923C134.836 57.5335 134.861 57.1871 134.885 56.8407C134.997 55.1953 135.132 54.3046 135.441 53.3891C135.614 52.8818 136.38 51.2859 135.157 49.7147C135.058 49.591 134.663 49.0467 133.91 48.3786H133.848ZM94.9974 64.7214C93.5649 65.3647 91.3914 66.7503 89.3291 68.6679C88.5141 69.4226 87.5508 70.4 86.8469 71.1794C84.8587 73.3691 83.5373 72.7382 82.8334 70.969C82.1789 69.3113 81.191 65.9215 80.5735 62.7791C79.9684 59.6738 79.3509 56.8407 82.4876 54.0943C82.8334 53.7973 85.9454 51.088 86.7975 50.0116C87.7114 48.8611 88.4523 47.7353 91.0333 47.5497C93.2191 47.4012 95.0715 48.1559 95.6025 48.5889C95.7384 48.7003 96.2694 49.0714 96.3558 49.7642C96.4423 50.4694 95.8866 50.8282 95.1703 51.0385C94.7998 51.1498 94.5282 51.3106 94.4047 51.5828C94.2194 52.0158 94.5405 52.5726 94.6516 52.7952C94.8492 53.1911 95.3926 54.2675 95.5037 55.0716C95.6643 56.3088 95.5037 57.5459 95.2074 58.5233C95.1333 58.7707 94.6022 60.0573 94.9357 60.9852C95.2938 61.9749 96.2817 62.2718 96.4546 62.9523C96.6399 63.6575 96.2941 64.14 94.9974 64.7214ZM117.658 54.0943C120.783 56.8407 120.178 59.6738 119.572 62.7791C118.955 65.9215 117.967 69.3113 117.312 70.969C116.621 72.7258 115.3 73.3568 113.299 71.1794C112.595 70.4 111.62 69.435 110.817 68.6679C108.754 66.738 106.569 65.3647 105.148 64.7214C103.852 64.14 103.494 63.6451 103.691 62.9523C103.877 62.2718 104.864 61.9749 105.21 60.9852C105.544 60.0573 105.013 58.7707 104.939 58.5233C104.655 57.5583 104.482 56.3088 104.642 55.0716C104.741 54.2551 105.297 53.1911 105.494 52.7952C105.605 52.5726 105.927 52.0158 105.741 51.5828C105.618 51.2983 105.346 51.1375 104.976 51.0385C104.259 50.8282 103.704 50.4694 103.79 49.7642C103.877 49.0714 104.408 48.7003 104.543 48.5889C105.087 48.1559 106.939 47.4012 109.113 47.5497C111.694 47.7353 112.435 48.8611 113.348 50.0116C114.213 51.088 117.325 53.7973 117.658 54.0943Z"></path>
<path fill="#231815" d="M88.4771 119.985C88.4771 118.835 88.4771 117.684 88.4771 116.533C88.4771 115.804 88.4894 115.061 88.5388 114.331C88.5635 113.849 88.6376 113.379 88.7364 112.909C88.8599 112.29 89.1439 111.77 89.5638 111.313C89.7243 111.127 89.9096 110.991 90.1195 110.867C90.5641 110.595 91.0334 110.422 91.5397 110.323C91.799 110.273 92.0707 110.224 92.3424 110.212C93.5526 110.162 94.911 110.62 95.6026 111.622C95.8866 112.043 96.0718 112.5 96.183 112.983C96.3682 113.713 96.4176 114.467 96.3929 115.222C96.3929 115.42 96.3435 115.606 96.2818 115.779C96.2077 115.989 96.0965 116.187 95.936 116.348C95.4667 116.843 94.7752 116.781 94.38 116.595C94.2195 116.521 94.0466 116.397 93.9354 116.249C93.6761 115.903 93.639 115.643 93.6143 115.272C93.6143 114.987 93.5773 114.678 93.5279 114.393C93.5032 114.269 93.4291 113.898 93.2315 113.651C93.0463 113.416 92.7746 113.317 92.6388 113.292C92.4165 113.255 91.9719 113.243 91.6508 113.577C91.305 113.935 91.305 114.777 91.305 114.913C91.305 118.253 91.305 121.593 91.305 124.934C91.305 125.119 91.305 125.8 91.5767 126.27C91.7496 126.554 92.0583 126.752 92.4165 126.752C93.318 126.752 93.4785 125.849 93.5032 125.602C93.5279 125.33 93.5649 125.057 93.5773 124.785C93.5896 124.587 93.639 124.402 93.7008 124.229C93.7255 124.142 93.7625 124.043 93.8119 123.969C93.9972 123.61 94.2936 123.387 94.7011 123.313C94.9975 123.264 95.2691 123.301 95.5408 123.4C95.8249 123.511 96.0224 123.709 96.1583 123.981C96.2694 124.216 96.3435 124.464 96.3559 124.711C96.4053 125.589 96.3188 126.431 96.0224 127.272C95.7508 128.027 95.405 128.522 94.5776 129.091C93.7008 129.697 92.4412 129.821 91.9102 129.771C91.0581 129.684 90.4282 129.388 89.9713 129.054C89.1316 128.447 88.8846 127.668 88.8105 127.445C88.6623 126.975 88.5635 126.48 88.5265 125.998C88.4771 125.441 88.4524 124.884 88.4524 124.328C88.4524 122.892 88.4524 121.457 88.4524 120.01L88.4771 119.985Z"></path>
<path fill="#231815" d="M68.743 103.568C69.4716 103.531 70.0273 103.803 70.2372 104.644C70.3731 105.214 71.5092 115.915 71.5092 115.915C71.6327 116.917 71.9538 117.115 72.2007 117.115C72.4724 117.115 72.7318 116.855 72.8552 115.915C72.9664 115.074 73.9173 105.857 74.0531 104.954C74.2137 103.766 74.8064 103.469 75.6462 103.568C76.5847 103.679 76.77 104.57 76.77 105.127V105.189C76.77 106.265 75.9426 113.886 74.2754 128.039C74.1643 128.682 74.0778 128.992 73.9049 129.227C73.732 129.462 73.3986 129.771 72.2131 129.771C71.2128 129.771 70.9782 129.598 70.6941 129.326C70.4965 129.14 70.3854 128.979 70.2743 128.509C70.1755 127.915 68.0267 110.434 67.5945 104.941C67.5327 104.199 67.8538 103.618 68.743 103.568Z"></path>
<path fill="#231815" d="M115.892 110.236C116.559 110.311 117.189 110.484 117.844 110.904C118.498 111.325 118.819 111.981 119.066 112.822C119.301 113.589 119.412 114.876 119.412 116.707V123.251C119.412 124.946 119.437 127.185 118.202 128.608C117.288 129.66 115.942 129.796 115.028 129.759C114.065 129.722 112.916 129.313 112.323 128.497C111.447 127.284 111.311 125.218 111.311 123.895V116.088C111.311 113.49 111.706 111.82 112.546 111.139C113.768 110.137 115.04 110.137 115.892 110.224V110.236ZM114.151 116.125V124.525C114.151 124.674 114.151 124.822 114.151 124.946C114.176 125.515 114.225 125.973 114.435 126.245C114.867 126.802 115.559 126.888 116.065 126.431C116.238 126.282 116.3 126.084 116.386 125.862C116.497 125.552 116.497 124.81 116.497 124.81V114.9C116.497 114.356 116.399 113.923 116.152 113.663C115.855 113.342 115.09 113.23 114.633 113.552C114.546 113.614 114.361 113.75 114.225 114.319C114.102 114.851 114.139 116.138 114.139 116.138L114.151 116.125Z"></path>
<path fill="#231815" d="M126.784 103.568C129.118 103.568 130.6 104.063 131.218 105.065C131.774 105.758 132.045 107.032 132.045 108.888V116.558C132.045 118.29 131.588 119.589 130.687 120.468C130.489 120.666 130.193 120.975 130.156 121.371C130.106 121.878 130.353 122.484 130.415 122.67C130.563 123.14 130.786 123.721 131.07 124.513C132.033 127.21 132.65 128.163 132.514 128.893C132.44 129.251 132.267 129.474 131.983 129.598C131.428 129.845 130.81 129.746 130.637 129.684C129.946 129.449 129.748 128.93 129.267 127.544C128.958 126.666 128.736 125.998 128.563 125.565C128.402 125.169 128.303 124.822 127.772 124.822C127.303 124.822 127.068 125.243 127.068 126.097V126.888C127.068 128.67 126.957 129.239 126.414 129.585C126.204 129.722 125.883 129.783 125.611 129.783C125.006 129.783 124.586 129.474 124.339 128.856C124.228 128.497 124.166 127.816 124.166 126.802V106.735C124.166 105.288 124.166 104.459 124.537 104.063C125.018 103.568 125.525 103.568 126.747 103.568H126.784ZM127.093 117.214C127.093 117.907 127.414 118.303 128.056 118.402H128.192C128.834 118.402 129.155 117.82 129.155 116.645V108.492C129.155 108.207 129.131 107.948 129.094 107.737C129.057 107.552 128.822 106.859 128.069 106.859C127.18 106.859 127.093 107.49 127.093 107.923V117.214Z"></path>
<path fill="#231815" d="M102.135 121.185C102.135 119.181 102.135 117.177 102.135 115.16C102.135 114.925 102.135 114.703 102.123 114.467C102.123 114.232 102.123 113.354 100.913 113.02C100.69 112.946 100.431 112.872 100.234 112.748C99.6284 112.352 99.5173 111.746 99.6902 111.102C99.826 110.62 100.271 110.187 101.567 110.187C102.95 110.187 104.321 110.187 105.704 110.187C105.988 110.187 106.26 110.212 106.532 110.286C106.606 110.311 106.692 110.335 106.766 110.36C107.458 110.595 107.68 111.226 107.594 111.808C107.52 112.327 107.223 112.674 106.742 112.872C106.445 112.995 106.013 112.995 105.63 113.317C105.247 113.639 105.198 114.121 105.173 114.356C105.136 114.764 105.111 115.173 105.111 115.593C105.111 119.466 105.111 123.325 105.111 127.198C105.111 127.532 105.111 127.853 105.087 128.187C105.074 128.497 104.988 128.806 104.84 129.091C104.692 129.375 104.482 129.598 104.161 129.709C103.506 129.92 102.753 129.771 102.407 129.029C102.308 128.818 102.246 128.596 102.209 128.373C102.16 128.027 102.135 127.693 102.135 127.346C102.135 126.196 102.135 125.045 102.135 123.895C102.135 123.004 102.135 122.113 102.135 121.235V121.185Z"></path>
<path fill="#231815" d="M80.944 119.911C80.944 117.437 80.944 114.962 80.944 112.488C80.944 112.364 80.9193 111.449 81.2527 110.855C81.5244 110.372 82.006 110.236 82.2654 110.212C82.4259 110.212 83.2286 110.15 83.6361 110.904C83.9078 111.399 83.9078 112.191 83.9078 112.339C83.9078 112.55 83.9078 112.772 83.9078 112.983C83.9078 117.634 83.9078 122.286 83.9078 126.95C83.9078 127.408 83.9078 127.878 83.8214 128.336C83.5621 129.4 82.994 129.771 82.463 129.771C81.9196 129.771 81.4997 129.561 81.2404 129.078C81.0675 128.757 80.9811 128.398 80.9564 128.039C80.944 127.841 80.9564 127.643 80.9564 127.445C80.9564 124.934 80.9564 122.422 80.9564 119.923L80.944 119.911Z"></path>
<path fill="#231815" d="M80.944 18.7116C80.944 16.2373 80.944 13.763 80.944 11.2887C80.944 11.165 80.9193 10.2495 81.2527 9.65566C81.5244 9.17317 82.006 9.03708 82.2654 9.01234C82.4259 9.01234 83.2286 8.95048 83.6361 9.70514C83.9078 10.2 83.9078 10.9918 83.9078 11.1402C83.9078 11.3506 83.9078 11.5732 83.9078 11.7836C83.9078 16.4353 83.9078 21.087 83.9078 25.751C83.9078 26.2088 83.9078 26.6789 83.8214 27.1367C83.5621 28.2006 82.994 28.5718 82.463 28.5718C81.9196 28.5718 81.4997 28.3614 81.2404 27.8789C81.0675 27.5573 80.9811 27.1985 80.9564 26.8397C80.944 26.6418 80.9564 26.4438 80.9564 26.2459C80.9564 23.7345 80.9564 21.2231 80.9564 18.724L80.944 18.7116Z"></path>
<path fill="#231815" d="M88.4771 18.7859C88.4771 17.6354 88.4771 16.4848 88.4771 15.3343C88.4771 14.6043 88.4894 13.8621 88.5388 13.1321C88.5635 12.6496 88.6376 12.1795 88.7364 11.7094C88.8599 11.0908 89.1439 10.5712 89.5638 10.1135C89.7243 9.9279 89.9096 9.79181 90.1195 9.6681C90.5641 9.39592 91.0334 9.22272 91.5397 9.12375C91.799 9.07426 92.0707 9.02478 92.3424 9.01241C93.5526 8.96292 94.911 9.42067 95.6026 10.4228C95.8866 10.8434 96.0718 11.3011 96.183 11.7836C96.3682 12.5136 96.4176 13.2682 96.3929 14.0229C96.3929 14.2208 96.3435 14.4064 96.2818 14.5796C96.2077 14.7899 96.0965 14.9879 95.936 15.1487C95.4667 15.6436 94.7752 15.5817 94.38 15.3961C94.2195 15.3219 94.0466 15.1982 93.9354 15.0497C93.6761 14.7033 93.639 14.4435 93.6143 14.0724C93.6143 13.7878 93.5773 13.4785 93.5279 13.194C93.5032 13.0703 93.4291 12.6991 93.2315 12.4517C93.0463 12.2166 92.7746 12.1177 92.6388 12.0929C92.4165 12.0558 91.9719 12.0434 91.6508 12.3775C91.305 12.7362 91.305 13.5775 91.305 13.7136C91.305 17.0539 91.305 20.3942 91.305 23.7346C91.305 23.9201 91.305 24.6006 91.5767 25.0707C91.7496 25.3552 92.0583 25.5532 92.4165 25.5532C93.318 25.5532 93.4785 24.65 93.5032 24.4026C93.5279 24.1304 93.5649 23.8583 93.5773 23.5861C93.5896 23.3881 93.639 23.2026 93.7008 23.0294C93.7255 22.9428 93.7625 22.8438 93.8119 22.7696C93.9972 22.4108 94.2936 22.1881 94.7011 22.1139C94.9975 22.0644 95.2691 22.1015 95.5408 22.2005C95.8249 22.3118 96.0224 22.5098 96.1583 22.7819C96.2694 23.017 96.3435 23.2644 96.3559 23.5119C96.4053 24.3902 96.3188 25.2315 96.0224 26.0728C95.7508 26.8274 95.405 27.3223 94.5776 27.8914C93.7008 28.4976 92.4412 28.6213 91.9102 28.5718C91.0581 28.4852 90.4282 28.1883 89.9713 27.8543C89.1316 27.2481 88.8846 26.4687 88.8105 26.246C88.6623 25.7759 88.5635 25.281 88.5265 24.7985C88.4771 24.2418 88.4524 23.6851 88.4524 23.1283C88.4524 21.6932 88.4524 20.2581 88.4524 18.8107L88.4771 18.7859Z"></path>
<path fill="#231815" d="M68.743 9.02465C69.4716 8.98753 70.0273 9.25971 70.2372 10.101C70.3731 10.6701 71.5092 20.3322 71.5092 20.3322C71.6327 21.3343 71.9538 21.5323 72.2007 21.5323C72.4724 21.5323 72.7318 21.2725 72.8552 20.3322C72.9664 19.491 73.9173 11.3134 74.0531 10.4103C74.2137 9.22259 74.8064 8.92567 75.6462 9.02465C76.5847 9.13599 76.77 10.0267 76.77 10.5835V10.6453C76.77 11.7216 75.9426 16.3239 74.2754 30.4769C74.1643 31.1202 74.0778 31.4295 73.9049 31.6646C73.732 31.8996 73.3986 32.2089 72.2131 32.2089C71.2128 32.2089 70.9782 32.0357 70.6941 31.7636C70.4965 31.578 70.3854 31.4172 70.2743 30.947C70.1755 30.3532 68.0267 15.8785 67.5945 10.3855C67.5327 9.64322 67.8538 9.06176 68.743 9.01228V9.02465Z"></path>
<path fill="#231815" d="M115.892 9.03712C116.559 9.11135 117.189 9.28455 117.844 9.70518C118.498 10.1258 118.819 10.7815 119.066 11.6228C119.301 12.3898 119.412 13.6765 119.412 15.5074V22.052C119.412 23.7469 119.437 25.9861 118.202 27.4089C117.288 28.4605 115.942 28.5965 115.028 28.5594C114.065 28.5223 112.916 28.114 112.323 27.2975C111.447 26.0851 111.311 24.0191 111.311 22.6953V14.8889C111.311 12.2908 111.706 10.6207 112.546 9.94024C113.768 8.93815 115.04 8.93815 115.892 9.02475V9.03712ZM114.151 14.926V23.3263C114.151 23.4747 114.151 23.6232 114.151 23.7469C114.176 24.316 114.225 24.7737 114.435 25.0459C114.867 25.6026 115.559 25.6892 116.065 25.2315C116.238 25.083 116.3 24.8851 116.386 24.6624C116.497 24.3531 116.497 23.6108 116.497 23.6108V13.6765C116.497 13.1321 116.399 12.6991 116.152 12.4393C115.855 12.1176 115.09 12.0063 114.633 12.328C114.546 12.3898 114.361 12.5259 114.225 13.095C114.102 13.627 114.139 14.9136 114.139 14.9136L114.151 14.926Z"></path>
<path fill="#231815" d="M126.784 9C129.118 9 130.6 9.49486 131.218 10.497C131.774 11.1898 132.045 12.464 132.045 14.3198V18.9838C132.045 20.7159 131.588 22.0149 130.687 22.8932C130.489 23.0912 130.193 23.4005 130.156 23.7964C130.106 24.3036 130.353 24.9098 130.415 25.0954C130.563 25.5655 130.786 26.147 131.07 26.9387C132.033 29.6357 132.65 30.5884 132.514 31.3183C132.44 31.6771 132.267 31.8997 131.983 32.0235C131.428 32.2709 130.81 32.1719 130.637 32.1101C129.946 31.875 129.748 31.3554 129.267 29.9698C128.958 29.0914 128.736 28.4233 128.563 27.9903C128.402 27.5944 128.303 27.248 127.772 27.248C127.303 27.248 127.068 27.6687 127.068 28.5223V29.3141C127.068 31.0956 126.957 31.6647 126.414 32.0111C126.204 32.1472 125.883 32.209 125.611 32.209C125.006 32.209 124.586 31.8997 124.339 31.2812C124.228 30.9224 124.166 30.242 124.166 29.2275V12.1671C124.166 10.7196 124.166 9.89075 124.537 9.49486C125.056 9 125.562 9 126.784 9ZM127.093 19.6395C127.093 20.3323 127.414 20.7282 128.056 20.8272H128.192C128.834 20.8272 129.155 20.2457 129.155 19.0704V13.9239C129.155 13.6393 129.131 13.3795 129.094 13.1692C129.057 12.9836 128.822 12.2908 128.069 12.2908C127.18 12.2908 127.093 12.9218 127.093 13.3548V19.6395Z"></path>
<path fill="#231815" d="M102.135 19.986C102.135 17.9818 102.135 15.9776 102.135 13.961C102.135 13.726 102.135 13.5033 102.123 13.2682C102.123 13.0332 102.123 12.1548 100.913 11.8208C100.69 11.7465 100.431 11.6723 100.234 11.5486C99.6284 11.1527 99.5173 10.5465 99.6902 9.90317C99.826 9.42068 100.271 8.98767 101.567 8.98767C102.95 8.98767 104.321 8.98767 105.704 8.98767C105.988 8.98767 106.26 9.01241 106.532 9.08664C106.606 9.11139 106.692 9.13613 106.766 9.16087C107.458 9.39593 107.68 10.0269 107.594 10.6083C107.52 11.1279 107.223 11.4744 106.742 11.6723C106.445 11.796 106.013 11.796 105.63 12.1177C105.247 12.4393 105.198 12.9218 105.173 13.1569C105.136 13.5651 105.111 13.9734 105.111 14.394C105.111 18.2663 105.111 22.1263 105.111 25.9986C105.111 26.3326 105.111 26.6542 105.087 26.9883C105.074 27.2976 104.988 27.6069 104.84 27.8914C104.692 28.1759 104.482 28.3986 104.161 28.51C103.506 28.7203 102.753 28.5718 102.407 27.8295C102.308 27.6192 102.246 27.3965 102.209 27.1739C102.16 26.8274 102.135 26.4934 102.135 26.147C102.135 24.9965 102.135 23.8459 102.135 22.6954C102.135 21.8046 102.135 20.9138 102.135 20.0355V19.986Z"></path>
<path fill="#D1B79F" d="M100.073 94.5369C99.0233 94.5369 98.1835 94.9328 97.2697 95.8977C96.5164 96.6895 97.1462 97.0483 97.9736 97.0112C98.6034 96.9864 99.3073 96.9741 100.073 96.9741C100.839 96.9741 101.543 96.9864 102.172 97.0112C103 97.0359 103.63 96.6895 102.876 95.8977C101.962 94.9328 101.123 94.5369 100.073 94.5369Z"></path>
<path fill="#D1B79F" d="M104.161 71.934C102.53 71.402 100.715 71.3649 100.209 71.3773C100.122 71.3773 100.024 71.3773 99.9372 71.3773C99.4432 71.3773 97.6155 71.402 95.973 71.934C92.5029 73.0598 91.515 75.1754 91.2433 76.5857C90.8975 78.3301 91.021 79.6786 91.5644 80.6807C92.1695 81.7818 93.1451 81.7199 94.0219 82.0168C94.9975 82.3385 95.3926 82.821 96.3682 82.9942C97.6896 83.2293 98.233 82.6478 98.8998 81.6581C99.2209 81.2003 99.4926 80.891 100.061 80.891C100.629 80.891 100.9 81.2003 101.221 81.6581C101.901 82.6478 102.432 83.2293 103.753 82.9942C104.729 82.821 105.124 82.3385 106.099 82.0168C106.976 81.7199 107.964 81.7941 108.557 80.6807C109.1 79.6786 109.224 78.3301 108.878 76.5857C108.606 75.1754 107.618 73.0598 104.148 71.934H104.161ZM98.5293 78.3301C98.4429 79.2827 97.3685 79.8889 95.6273 79.258C94.8369 78.9734 94.7134 78.3549 94.3923 78.1569C93.7872 77.7858 93.4291 78.0703 93.0339 77.526C92.7252 77.1177 92.7746 76.5486 92.9969 76.0166C93.5402 74.7052 95.6273 73.4928 96.8004 74.5692C98.3441 75.9795 98.6158 77.3775 98.517 78.3301H98.5293ZM107.1 77.526C106.705 78.0703 106.359 77.7734 105.741 78.1569C105.42 78.3549 105.297 78.9734 104.506 79.258C102.765 79.8889 101.703 79.2827 101.604 78.3301C101.506 77.3775 101.777 75.9795 103.321 74.5692C104.494 73.4928 106.581 74.7052 107.124 76.0166C107.347 76.5486 107.396 77.1177 107.087 77.526H107.1Z"></path>
<path fill="white" d="M107.977 56.0365C107.47 57.0263 107.643 59.8965 110.002 60.7501C112.373 61.6037 114.707 60.4532 115.757 59.946C116.744 59.4758 116.856 58.4985 116.189 57.2613C115.522 56.0242 114.583 54.985 112.422 54.3416C110.903 53.8839 108.89 54.2179 107.977 56.0365ZM114.472 57.8552C114.336 58.3748 113.435 58.5356 113.027 58.7954C112.521 59.1171 112.2 59.513 111.545 59.513C110.249 59.5006 110.026 58.1521 109.347 57.3232C108.211 55.9128 110.545 55.7025 111.755 55.8262C112.953 55.9499 114.756 56.717 114.46 57.8552H114.472Z"></path>
<path fill="white" d="M87.7114 54.3541C85.5503 54.9974 84.6117 56.0366 83.9449 57.2738C83.278 58.5109 83.3892 59.4883 84.3771 59.9584C85.4268 60.4532 87.7608 61.6038 90.1318 60.7625C92.5029 59.9089 92.6634 57.0387 92.1571 56.049C91.2433 54.2427 89.2303 53.9087 87.7114 54.3541ZM90.774 57.3232C90.1071 58.1521 89.8725 59.4883 88.5758 59.513C87.9337 59.513 87.6002 59.1295 87.0939 58.7955C86.6864 58.5357 85.7849 58.3748 85.6491 57.8552C85.3527 56.717 87.1557 55.95 88.3535 55.8263C89.5638 55.7026 91.8978 55.9253 90.7617 57.3232H90.774Z"></path>
<path fill="black" d="M136.466 46.7456L136.442 46.7208C136.182 46.461 135.898 46.1888 135.614 45.9043C134.231 44.4939 132.675 43.9001 131.551 43.4795C130.81 43.1949 130.18 42.9599 129.798 42.5887C128.081 40.9433 126.636 40.2752 124.253 40.0402C122.845 39.9041 121.388 39.2113 119.684 37.8628C116.658 35.4751 112.373 36.1555 110.52 36.836C108.125 37.7267 107.013 37.8009 105.371 37.5659C102.963 37.2071 101.555 37.0834 100.048 37.0834C98.5417 37.0834 97.1339 37.2071 94.7258 37.5659C93.0957 37.8009 91.9843 37.7267 89.5762 36.836C87.7361 36.1431 83.4386 35.4751 80.413 37.8628C78.7089 39.2113 77.2516 39.9041 75.8438 40.0402C73.4728 40.2752 72.0156 40.9433 70.299 42.5887C69.9162 42.9599 69.2864 43.1949 68.5454 43.4795C67.4093 43.9125 65.8656 44.4939 64.4825 45.9043C64.1985 46.1888 63.9268 46.461 63.6551 46.7208L63.6304 46.7456C62.2103 48.1312 60.2591 50.0364 61.1976 52.9437C61.5187 53.9211 61.9015 55.5789 61.988 57.9047V58.0161C62.0127 58.4119 62.0127 58.8326 62.025 59.2656C62.0497 61.1213 62.0744 63.2245 63.2229 65.6246C63.5687 66.3545 63.9021 67.0102 64.2232 67.6411C64.4455 68.0865 64.6925 68.5195 64.9518 68.9649C65.8162 70.4742 66.7177 72.033 66.9524 74.4084C66.9647 74.5692 66.9894 74.73 67.0018 74.8908C67.15 76.4249 67.2735 77.7487 68.2737 78.6023C68.8295 79.0724 69.521 79.2951 70.2867 79.2333C70.509 79.2085 70.7312 79.1838 70.9412 79.1343C71.1141 79.0972 71.608 78.9363 71.9909 79.0848C72.349 79.2333 72.5713 79.691 72.6454 79.8766C74.4854 84.3427 76.9923 86.8047 78.4001 87.9057C78.8447 88.2645 79.4251 88.747 79.845 89.3656C80.5118 90.3305 81.2898 91.345 82.1543 92.3719C82.8829 93.2379 83.6239 94.2894 84.0684 96.0586C84.229 96.7143 84.4266 97.4689 84.7106 98.1617C85.7109 100.673 87.2916 102.244 89.1934 102.578C91.1445 102.912 92.4289 102.38 93.7626 101.49C93.8243 101.453 93.8861 101.403 93.9602 101.354C94.4294 101.007 95.158 100.5 96.7758 100.24C97.5538 100.116 98.6158 100.055 100.011 100.055C101.407 100.055 102.456 100.116 103.247 100.24C104.877 100.5 105.593 101.02 106.062 101.354C106.137 101.403 106.198 101.453 106.26 101.49C107.594 102.393 108.878 102.925 110.829 102.578C112.719 102.244 114.312 100.686 115.312 98.1617C115.584 97.4689 115.781 96.7143 115.954 96.0586C116.399 94.2894 117.14 93.2379 117.868 92.3719C118.733 91.345 119.511 90.3305 120.178 89.3656C120.61 88.747 121.178 88.2645 121.622 87.9057C123.018 86.8047 125.537 84.3427 127.377 79.8766C127.451 79.691 127.686 79.2333 128.032 79.0848C128.402 78.9363 128.909 79.0848 129.081 79.1343C129.291 79.1838 129.514 79.2209 129.736 79.2333C130.502 79.2951 131.205 79.0724 131.749 78.6023C132.761 77.7363 132.885 76.4125 133.021 74.8908C133.033 74.73 133.046 74.5816 133.07 74.4084C133.305 72.033 134.206 70.4742 135.071 68.9649C135.33 68.5071 135.577 68.0865 135.799 67.6411C136.12 67.0102 136.454 66.3545 136.8 65.6246C137.948 63.2368 137.973 61.1213 137.998 59.2656C137.998 58.8326 137.998 58.4119 138.022 58.0161V57.9047C138.109 55.5789 138.504 53.9211 138.825 52.9437C139.763 50.024 137.812 48.1312 136.392 46.7456H136.466ZM102.172 97.0112C101.543 96.9864 100.839 96.9741 100.073 96.9741C99.3074 96.9741 98.6035 96.9864 97.9737 97.0112C97.1463 97.0359 96.5165 96.6895 97.2698 95.8977C98.1836 94.9328 99.0234 94.5369 100.073 94.5369C101.123 94.5369 101.962 94.9328 102.876 95.8977C103.63 96.6895 103 97.0483 102.172 97.0112ZM108.569 80.6807C107.964 81.7818 106.989 81.7199 106.112 82.0169C105.136 82.3385 104.741 82.821 103.765 82.9942C102.444 83.2293 101.901 82.6478 101.234 81.6581C100.913 81.2003 100.641 80.8911 100.073 80.8911C99.505 80.8911 99.2333 81.2003 98.9122 81.6581C98.233 82.6478 97.702 83.2293 96.3806 82.9942C95.405 82.821 95.0099 82.3385 94.0343 82.0169C93.1575 81.7199 92.1695 81.7942 91.5768 80.6807C91.0334 79.6786 90.9099 78.3301 91.2557 76.5858C91.5274 75.1754 92.5153 73.0599 95.9854 71.934C97.6279 71.4021 99.4556 71.365 99.9496 71.3773C100.036 71.3773 100.122 71.3773 100.221 71.3773C100.728 71.3773 102.543 71.4144 104.173 71.934C107.643 73.0599 108.631 75.1754 108.903 76.5858C109.249 78.3301 109.125 79.6786 108.582 80.6807H108.569ZM135.38 53.3891C135.071 54.2922 134.923 55.1953 134.824 56.8408C134.799 57.1872 134.787 57.5336 134.762 57.8923C134.663 59.8965 134.564 61.9626 133.428 64.3255C133.095 65.0184 132.774 65.6617 132.453 66.2679C131.415 68.3092 130.835 70.0659 130.551 72.231C130.465 72.9114 130.341 74.7548 130.304 75.0022C130.106 76.2146 129.094 75.9301 128.797 74.9403C128.711 74.6434 128.624 74.2723 128.563 73.8145L128.427 72.9114C128.019 70.1525 127.859 64.1523 127.562 60.3419C127.241 56.2098 125.759 51.5705 123.586 47.7229C121.882 44.7043 119.202 43.0465 118.325 42.5764C116.905 41.8217 115.732 41.8588 116.176 43.7145C116.757 46.0775 118.683 46.9064 120.054 48.5023C120.931 49.5168 121.845 51.1251 122.499 52.6468C123.598 55.183 124.401 58.3872 124.586 60.7873C124.759 62.9647 126.266 74.1857 123.882 80.223C123.611 80.9034 123.277 81.4973 122.931 82.0045C122.771 82.2396 122.252 82.9447 121.771 83.2416C121.4 83.4643 121.03 83.5509 120.721 83.2664C120.276 82.8458 119.745 82.6231 119.572 83.3901C119.437 83.9963 119.202 84.652 118.943 85.2458C118.177 87.0397 117.448 88.0047 117.189 88.3387C115.942 89.9223 115.337 88.8831 115.016 88.2645C114.732 87.683 114.015 84.751 114.077 83.3777C114.077 83.1056 114.102 82.8086 114.126 82.487C114.324 79.3075 114.67 73.3939 108.89 69.7443C105.346 67.505 101.382 67.3318 100.209 67.3318H100.036H99.8878H99.8631C98.6899 67.3318 94.7258 67.5174 91.1816 69.7443C85.4021 73.3939 85.7603 79.3075 85.9455 82.487C85.9702 82.8086 85.9826 83.1056 85.9949 83.3777C86.0443 84.751 85.3404 87.6954 85.0564 88.2645C84.7476 88.8831 84.1425 89.9223 82.8952 88.3387C82.6359 88.0047 81.9073 87.0397 81.1417 85.2458C80.8823 84.652 80.6477 83.9963 80.5118 83.3901C80.339 82.6107 79.7956 82.8458 79.3634 83.2664C79.067 83.5509 78.6842 83.4643 78.3137 83.2416C77.8444 82.9447 77.3134 82.2396 77.1528 82.0045C76.8071 81.4973 76.4736 80.9034 76.202 80.223C73.8186 74.1857 75.3252 62.9647 75.498 60.7873C75.6833 58.3996 76.486 55.1953 77.5851 52.6468C78.2396 51.1251 79.1534 49.5168 80.0302 48.5023C81.401 46.9188 83.3275 46.0775 83.9079 43.7145C84.3648 41.8588 83.1793 41.8217 81.7591 42.5764C80.8823 43.0465 78.2025 44.7043 76.4983 47.7229C74.3249 51.5705 72.843 56.2222 72.5219 60.3419C72.2255 64.1523 72.0526 70.1525 71.6574 72.9114L71.5216 73.8145C71.4598 74.2723 71.3734 74.6434 71.287 74.9403C70.9906 75.9177 69.9779 76.2146 69.7804 75.0022C69.7433 74.7671 69.6198 72.9238 69.5334 72.231C69.2493 70.0659 68.6689 68.3092 67.6316 66.2679C67.3229 65.6493 66.9894 65.0184 66.656 64.3255C65.5199 61.9626 65.4211 59.8965 65.3223 57.8923C65.3099 57.5336 65.2852 57.1872 65.2605 56.8408C65.1494 55.1953 65.0135 54.3046 64.7048 53.3891C64.5319 52.8819 63.7663 51.2859 64.9888 49.7147C65.0876 49.591 65.4828 49.0467 66.2361 48.3786C66.5449 48.1064 67.4093 47.3023 68.3231 47.1909C69.2864 47.0796 69.5457 48.6755 70.7189 48.0198C71.6327 47.5002 72.3366 45.8672 72.9418 44.927C73.3246 44.3207 74.399 43.3681 76.3625 42.9475C78.7953 42.4279 79.8697 41.9454 81.2034 40.9928C81.7838 40.5845 82.7594 39.3721 85.2416 39.1371C86.6741 39.001 88.0819 39.669 89.3662 40.1763C90.4653 40.6093 91.3051 41.0423 92.3301 41.3639C93.3057 41.6732 94.6394 41.9083 96.8622 40.6835C97.418 40.3742 97.9243 40.1268 98.4306 40.0031C99.2827 39.7928 100.011 39.8299 100.011 39.8299C100.011 39.8299 100.74 39.7928 101.592 40.0031C102.098 40.1268 102.605 40.3866 103.16 40.6835C105.383 41.9083 106.717 41.6732 107.693 41.3639C108.718 41.0423 109.557 40.6093 110.656 40.1763C111.941 39.669 113.348 39.001 114.781 39.1371C117.263 39.3598 118.239 40.5845 118.819 40.9928C120.153 41.933 121.227 42.4279 123.66 42.9475C125.624 43.3681 126.698 44.3207 127.081 44.927C127.698 45.8796 128.39 47.5002 129.304 48.0198C130.465 48.6755 130.736 47.0796 131.699 47.1909C132.613 47.3023 133.478 48.1064 133.786 48.3786C134.54 49.0467 134.935 49.591 135.034 49.7147C136.256 51.2736 135.491 52.8819 135.318 53.3891H135.38ZM113.348 50.0117C112.435 48.8611 111.694 47.7353 109.113 47.5497C106.927 47.4013 105.074 48.1559 104.543 48.5889C104.408 48.7003 103.877 49.0714 103.79 49.7642C103.704 50.4694 104.259 50.8282 104.976 51.0385C105.346 51.1498 105.618 51.3107 105.741 51.5828C105.927 52.0158 105.605 52.5726 105.494 52.7953C105.297 53.1911 104.753 54.2675 104.642 55.0716C104.482 56.3088 104.642 57.5459 104.939 58.5233C105.013 58.7707 105.544 60.0574 105.21 60.9852C104.852 61.975 103.864 62.2719 103.691 62.9523C103.506 63.6575 103.852 64.14 105.149 64.7214C106.581 65.3648 108.755 66.7504 110.817 68.668C111.632 69.4226 112.595 70.4 113.299 71.1794C115.287 73.3691 116.609 72.7382 117.313 70.9691C117.967 69.3113 118.955 65.9215 119.572 62.7791C120.178 59.6738 120.795 56.8408 117.658 54.0943C117.313 53.7974 114.201 51.088 113.348 50.0117ZM116.201 57.2738C116.868 58.5109 116.757 59.4883 115.769 59.9584C114.719 60.4532 112.385 61.6038 110.014 60.7625C107.643 59.9213 107.483 57.0387 107.989 56.049C108.903 54.2427 110.916 53.9087 112.435 54.3541C114.596 54.9974 115.534 56.0366 116.201 57.2738ZM107.137 76.0167C107.359 76.5486 107.408 77.1177 107.1 77.526C106.705 78.0703 106.359 77.7734 105.741 78.1569C105.42 78.3549 105.297 78.9735 104.506 79.258C102.765 79.889 101.703 79.2828 101.604 78.3301C101.518 77.3775 101.777 75.9795 103.321 74.5692C104.494 73.4929 106.581 74.7053 107.124 76.0167H107.137ZM96.8128 74.5568C98.3565 75.9672 98.6282 77.3652 98.5294 78.3178C98.4306 79.2704 97.3686 79.8766 95.6273 79.2456C94.837 78.9611 94.7135 78.3425 94.3924 78.1446C93.7873 77.7734 93.4291 78.058 93.034 77.5136C92.7252 77.1054 92.7746 76.5363 92.9969 76.0043C93.5403 74.6929 95.6273 73.4805 96.8005 74.5568H96.8128ZM111.768 55.8263C112.966 55.95 114.769 56.717 114.472 57.8552C114.336 58.3748 113.435 58.5357 113.027 58.7955C112.521 59.1171 112.2 59.513 111.545 59.513C110.249 59.5006 110.027 58.1521 109.347 57.3232C108.211 55.9129 110.545 55.7026 111.755 55.8263H111.768ZM94.9358 60.9729C94.6023 60.045 95.1333 58.7583 95.2074 58.5109C95.4915 57.5459 95.6644 56.2964 95.5038 55.0592C95.405 54.2427 94.8493 53.1788 94.6517 52.7829C94.5406 52.5602 94.2195 52.0035 94.4047 51.5705C94.5282 51.2859 94.7999 51.1251 95.1704 51.0261C95.8866 50.8158 96.4424 50.457 96.3559 49.7519C96.2695 49.059 95.7385 48.6879 95.6026 48.5766C95.0592 48.1436 93.2069 47.3889 91.0334 47.5373C88.4524 47.7229 87.7115 48.8487 86.7976 49.9993C85.9332 51.0756 82.8212 53.785 82.4877 54.0819C79.3634 56.8284 79.9685 59.6615 80.5736 62.7667C81.1911 65.9091 82.179 69.2989 82.8335 70.9567C83.5251 72.7135 84.8464 73.3444 86.847 71.167C87.5509 70.3876 88.5265 69.4226 89.3292 68.6556C91.3915 66.7256 93.5773 65.3524 94.9975 64.7091C96.2942 64.1276 96.6523 63.6327 96.4547 62.9399C96.2695 62.2595 95.2815 61.9626 94.9358 60.9729ZM90.1319 60.7502C87.7608 61.6038 85.4268 60.4532 84.3772 59.946C83.3892 59.4759 83.2781 58.4985 83.9449 57.2614C84.6118 56.0242 85.5503 54.985 87.7115 54.3417C89.2304 53.884 91.2433 54.218 92.1572 56.0366C92.6635 57.0263 92.4906 59.8965 90.1319 60.7502ZM90.7741 57.3232C90.1072 58.1521 89.8726 59.4883 88.5759 59.513C87.9337 59.513 87.6003 59.1295 87.094 58.7955C86.6865 58.5357 85.785 58.3748 85.6491 57.8552C85.3527 56.717 87.1557 55.95 88.3536 55.8263C89.5638 55.7026 91.8978 55.9253 90.7617 57.3232H90.7741Z"></path>
<path fill="white" d="M117.214 88.314C117.473 87.9799 118.202 87.015 118.967 85.2211C119.227 84.6273 119.461 83.9716 119.597 83.3654C119.77 82.586 120.313 82.821 120.746 83.2416C121.042 83.5262 121.425 83.4396 121.795 83.2169C122.265 82.92 122.796 82.2148 122.956 81.9797C123.302 81.4725 123.635 80.8787 123.907 80.1982C125.253 76.7961 125.352 71.7608 125.167 67.604C124.809 69.0762 124.327 70.8701 123.771 72.2805C122.487 75.5342 121.351 77.8848 118.412 79.9384C117.177 80.7921 115.547 81.1509 114.213 81.2993C114.201 81.7076 114.176 82.1035 114.151 82.4499C114.126 82.7715 114.114 83.0684 114.102 83.3406C114.052 84.7139 114.756 87.6583 115.04 88.2274C115.349 88.846 115.954 89.8852 117.214 88.3016V88.314Z"></path>
<path fill="white" d="M124.95 51.6251C126.185 54.6067 127 57.7985 127.222 60.7182C127.519 64.5287 127.692 70.5289 128.087 73.2877L128.223 74.1908C128.284 74.6486 128.371 75.0197 128.457 75.3166C128.754 76.294 129.766 76.5909 129.964 75.3785C130.001 75.1434 130.124 73.3001 130.211 72.6073C130.445 70.801 130.902 69.267 131.643 67.6215C131.582 66.1988 131.446 64.7637 131.199 63.4523C130.532 59.9017 129.927 58.2563 128.013 55.2376C127.025 53.6788 125.95 52.5035 124.938 51.6251H124.95Z"></path>
<path fill="white" d="M68.1378 67.2452C68.8911 68.8906 69.3357 70.4123 69.5703 72.2309C69.6568 72.9114 69.7803 74.7547 69.8173 75.0022C70.0149 76.2146 71.0276 75.93 71.3239 74.9403C71.4104 74.6434 71.4968 74.2722 71.5586 73.8145L71.6944 72.9114C72.1019 70.1525 72.2625 64.1523 72.5589 60.3419C72.7812 57.4098 73.6086 54.2303 74.8311 51.2488C73.8308 52.1272 72.7441 53.3025 71.7562 54.8613C69.842 57.8799 69.2369 59.5253 68.5701 63.076C68.3231 64.3874 68.1872 65.8348 68.1255 67.2452H68.1378Z"></path>
<path fill="white" d="M76.3625 72.2805C75.8067 70.8825 75.3251 69.0762 74.967 67.604C74.7694 71.7485 74.8806 76.7961 76.2266 80.1982C76.4983 80.8787 76.8317 81.4725 77.1775 81.9797C77.3381 82.2148 77.8567 82.92 78.3383 83.2169C78.7088 83.4396 79.0793 83.5262 79.388 83.2416C79.8326 82.821 80.3636 82.5983 80.5365 83.3654C80.6724 83.9716 80.907 84.6273 81.1663 85.2211C81.932 87.015 82.6606 87.9799 82.9199 88.314C84.1672 89.8975 84.7723 88.8583 85.081 88.2398C85.3651 87.6583 86.0813 84.7262 86.0196 83.353C86.0196 83.0808 85.9949 82.7839 85.9702 82.4622C85.9455 82.1035 85.9208 81.7199 85.9084 81.3117C84.5747 81.1632 82.9323 80.8044 81.7097 79.9508C78.7829 77.8971 77.6344 75.5465 76.3501 72.2928L76.3625 72.2805Z"></path>
</g>
<defs>
<clipPath id="clip0_5_1832">
<rect transform="translate(61 9)" fill="white" height="120.771" width="78.146"></rect>
</clipPath>
</defs>
</svg>
